<svg xmlns="http://www.w3.org/2000/svg" 
aria-hidden="true" 
style="position:absolute;width:0;height:0;overflow:hidden">
<defs>

<symbol id="icon-astronaut-1" viewBox="0 0 32 32">
<path d="M31.974 4.524c-0.063-0.193-0.229-0.333-0.43-0.363l-1.91-0.278-0.855-1.731c-0.179-0.365-0.777-0.365-0.956 0l-0.855 1.731-1.91 0.278c-0.201 0.029-0.367 0.17-0.431 0.363-0.062 0.193-0.011 0.405 0.135 0.547l1.383 1.348-0.326 1.903c-0.034 0.2 0.048 0.402 0.212 0.522 0.166 0.121 0.382 0.135 0.562 0.040l1.709-0.899 1.709 0.899c0.078 0.041 0.164 0.061 0.249 0.061 0.11 0 0.221-0.034 0.314-0.102 0.164-0.119 0.246-0.322 0.212-0.522l-0.326-1.903 1.383-1.348c0.145-0.142 0.197-0.354 0.135-0.547zM29.511 5.851c-0.125 0.122-0.183 0.299-0.153 0.472l0.191 1.114-1-0.526c-0.078-0.041-0.163-0.061-0.249-0.061s-0.17 0.020-0.249 0.061l-1.001 0.526 0.191-1.114c0.030-0.173-0.028-0.349-0.153-0.472l-0.81-0.789 1.119-0.163c0.174-0.025 0.324-0.134 0.402-0.292l0.5-1.013 0.5 1.013c0.078 0.157 0.228 0.267 0.402 0.292l1.119 0.163-0.809 0.789z"></path>
<path d="M26.133 20.522h-1.067v1.067h1.067v-1.067z"></path>
<path d="M26.133 22.656h-1.067v1.067h1.067v-1.067z"></path>
<path d="M27.2 21.589h-1.067v1.067h1.067v-1.067z"></path>
<path d="M25.067 21.589h-1.067v1.067h1.067v-1.067z"></path>
<path d="M22.4 26.389h-1.067v1.067h1.067v-1.067z"></path>
<path d="M22.4 28.522h-1.067v1.067h1.067v-1.067z"></path>
<path d="M23.467 27.456h-1.067v1.067h1.067v-1.067z"></path>
<path d="M21.333 27.456h-1.067v1.067h1.067v-1.067z"></path>
<path d="M16 24.256h-1.067v1.067h1.067v-1.067z"></path>
<path d="M16 26.389h-1.067v1.067h1.067v-1.067z"></path>
<path d="M17.067 25.322h-1.067v1.067h1.067v-1.067z"></path>
<path d="M14.933 25.322h-1.067v1.067h1.067v-1.067z"></path>
<path d="M5.867 6.122h-1.067v1.067h1.067v-1.067z"></path>
<path d="M5.867 8.255h-1.067v1.067h1.067v-1.067z"></path>
<path d="M6.933 7.189h-1.067v1.067h1.067v-1.067z"></path>
<path d="M4.8 7.189h-1.067v1.067h1.067v-1.067z"></path>
<path d="M24.715 14.159c-0.287-0.388-0.709-0.637-1.188-0.705-0.481-0.068-0.956 0.058-1.34 0.352l-1.252 0.96-1.898 1.417-1.358-0.541c2.421-1.086 4.114-3.508 4.114-6.32 0-3.823-3.123-6.933-6.961-6.933s-6.961 3.11-6.961 6.933c0 1.386 0.414 2.674 1.12 3.758l-2.764-0.024c-0.002 0-0.003 0-0.005 0-0.009 0-0.015 0.004-0.023 0.005-0.053 0.002-0.105 0.013-0.155 0.031-0.013 0.005-0.026 0.008-0.038 0.013-0.006 0.003-0.013 0.003-0.019 0.006l-3.233 1.596c-0.001 0-0.001 0-0.001 0.001l-1.893 0.911c-0.021 0.009-0.042 0.021-0.063 0.035-0.755 0.502-1.012 1.489-0.598 2.295 0.22 0.429 0.595 0.745 1.056 0.889 0.178 0.055 0.359 0.083 0.539 0.083 0.29 0 0.577-0.071 0.839-0.211l1.388-0.738 2.264-1.169 1.357-0.008-5.442 5.416c-0.001 0.001-0.001 0.001-0.002 0.001l-1.339 1.333c-0.316 0.315-0.49 0.732-0.49 1.178s0.174 0.863 0.49 1.179c0.325 0.323 0.752 0.485 1.179 0.485s0.854-0.162 1.18-0.485l1.314-1.309 1.741-1.3 0.901 0.897-1.762 1.754c-0 0.001-0.001 0.001-0.002 0.001l-1.339 1.333c-0.316 0.315-0.49 0.732-0.49 1.178s0.174 0.863 0.49 1.179c0.325 0.323 0.753 0.485 1.18 0.485s0.855-0.162 1.18-0.485l3.482-3.467c0.001-0.001 0.001-0.001 0.001-0.002l1.010-1-0.004-0.004c0.006-0.006 0.015-0.009 0.022-0.015l5.166-5.658 3.471 0.494c0.025 0.004 0.050 0.005 0.075 0.005 0.065 0 0.127-0.015 0.187-0.038 0.018-0.006 0.033-0.015 0.050-0.023 0.019-0.010 0.039-0.015 0.058-0.027l3.213-2.133c0.012-0.008 0.018-0.021 0.029-0.029 0.013-0.010 0.029-0.014 0.041-0.026l1.271-1.191c0.662-0.62 0.753-1.635 0.212-2.362zM2.13 17.77c-0.173 0.093-0.37 0.111-0.558 0.052-0.187-0.058-0.338-0.186-0.427-0.358-0.161-0.314-0.068-0.695 0.214-0.902l1.314-0.632 0.449 1.313-0.992 0.527zM5.628 15.942l-1.548 0.8-0.439-1.283 2.027-1.001-0.040 1.484zM20.727 9.322c0 0.918-0.219 1.785-0.599 2.559l-4.181-1.899c-0.044-0.573-0.341-1.075-0.788-1.388l1.464-4.86c2.378 0.756 4.105 2.974 4.105 5.588zM8.938 9.322c0-3.235 2.644-5.867 5.894-5.867 0.253 0 0.5 0.021 0.745 0.052l-1.432 4.754c-0.019-0.001-0.037-0.006-0.057-0.006-1.033 0-1.873 0.837-1.873 1.867s0.84 1.867 1.873 1.867c0.694 0 1.294-0.383 1.618-0.945l3.862 1.755c-1.075 1.446-2.795 2.39-4.737 2.39-3.25 0-5.894-2.632-5.894-5.867zM14.894 10.122c0 0.441-0.362 0.8-0.806 0.8s-0.806-0.359-0.806-0.8c0-0.441 0.362-0.8 0.806-0.8s0.806 0.359 0.806 0.8zM2.465 25.146c-0.236 0.234-0.619 0.234-0.854 0.001-0.114-0.114-0.176-0.263-0.176-0.423s0.062-0.309 0.176-0.421l0.962-0.958 0.851 0.848-0.959 0.955zM5.679 28.88c-0.236 0.234-0.619 0.235-0.855 0.001-0.114-0.114-0.176-0.263-0.176-0.423s0.062-0.309 0.176-0.421l0.963-0.959 0.852 0.848-0.96 0.955zM9.16 25.411c-0.001 0-0.001 0-0.002 0.001l-1.765 1.76-0.852-0.848 1.763-1.755c0 0 0 0 0-0s0.001-0.001 0.002-0.001c0.040-0.040 0.065-0.088 0.090-0.135 0.007-0.014 0.020-0.026 0.026-0.040 0.017-0.041 0.019-0.085 0.026-0.129 0.003-0.025 0.014-0.047 0.014-0.073 0-0.036-0.013-0.070-0.020-0.106-0.006-0.032-0.006-0.065-0.019-0.095-0.020-0.050-0.055-0.094-0.091-0.138-0.010-0.012-0.014-0.027-0.025-0.038 0 0 0 0-0.001 0s-0.001-0.002-0.001-0.002l-1.607-1.6c-0.017-0.017-0.039-0.024-0.058-0.038-0.028-0.022-0.055-0.042-0.087-0.058-0.030-0.015-0.061-0.024-0.093-0.033-0.034-0.010-0.067-0.017-0.103-0.020-0.033-0.002-0.063 0.001-0.095 0.005-0.036 0.004-0.069 0.009-0.104 0.020-0.034 0.011-0.063 0.027-0.094 0.045-0.020 0.011-0.042 0.015-0.061 0.029l-1.773 1.324-0.901-0.897 2.399-2.386 4.361 4.289-0.928 0.919zM15.979 18.394c-0.015-0.002-0.030 0.004-0.045 0.003-0.039-0.002-0.076 0.001-0.115 0.007-0.030 0.005-0.059 0.011-0.088 0.021-0.034 0.012-0.065 0.028-0.097 0.047-0.030 0.018-0.057 0.037-0.083 0.061-0.013 0.011-0.028 0.017-0.040 0.029l-4.698 5.146-4.328-4.257 2.833-2.818c0.209-0.208 0.21-0.546 0.002-0.755-0.105-0.105-0.243-0.157-0.381-0.156v-0.001l-2.219 0.013 0.028-1.607 3.104 0.027c1.265 1.294 3.029 2.101 4.981 2.101 0.437 0 0.864-0.045 1.279-0.123 0.040 0.032 0.079 0.065 0.13 0.085l2.41 0.96 0.152 0.758 0.178 0.885-3.003-0.427zM20.020 18.572l-0.313-1.558 1.446-1.080 0.947 1.257-2.080 1.381zM23.774 15.741l-0.838 0.785-0.931-1.236 0.831-0.637c0.155-0.119 0.351-0.168 0.543-0.143 0.193 0.027 0.364 0.128 0.48 0.284 0.217 0.292 0.18 0.699-0.085 0.947z"></path>
<path d="M13.602 18.544l-2.143-2.133c-0.207-0.207-0.545-0.207-0.753 0l-2.142 2.133c-0.1 0.101-0.157 0.236-0.157 0.378s0.056 0.278 0.157 0.378l2.142 2.133c0.104 0.103 0.241 0.155 0.377 0.155s0.273-0.052 0.376-0.155l2.143-2.133c0.1-0.1 0.157-0.236 0.157-0.378s-0.057-0.278-0.157-0.378zM11.083 20.303l-1.387-1.381 1.387-1.381 1.387 1.381-1.387 1.381z"></path>
<path d="M17.164 5.071l-0.258 1.036c0.071 0.018 1.738 0.452 1.738 2.149h1.067c-0-2.017-1.666-2.965-2.547-3.185z"></path>
<path d="M19.711 9.322h-1.067v1.067h1.067v-1.067z"></path>
</symbol>
<symbol id="icon-charm" viewBox="0 0 47 32">
<path stroke-linejoin="round" stroke-linecap="round" stroke-miterlimit="4" stroke-width="4.3636" d="M1.961 29.153h42.964M1.961 15.615h42.964M1.961 2.077h42.964"></path>
</symbol>
<symbol id="icon-email" 
viewBox="0 0 24 32">
<path d="M20 8H4c-1.1 0-1.99.9-1.99 2L2 22c0 1.1.9 2 2 2h16c1.1 0 2-.9 2-2V10c0-1.1-.9-2-2-2zm-.4 4.25-7.07 4.42c-.32.2-.74.2-1.06 0L4.4 12.25a.85.85 0 1 1 .9-1.44L12 15l6.7-4.19a.85.85 0 1 1 .9 1.44z"/>
</symbol>
<symbol id="icon-person" 
viewBox="0 0 32 32">
<path d="M16 16c2.947 0 5.333-2.387 5.333-5.333S18.946 5.334 16 5.334c-2.947 0-5.333 2.387-5.333 5.333S13.054 16 16 16zm0 2.667c-3.56 0-10.667 1.787-10.667 5.333v1.333c0 .733.6 1.333 1.333 1.333h18.667c.733 0 1.333-.6 1.333-1.333V24c0-3.547-7.107-5.333-10.667-5.333z"/>
</symbol>
<symbol id="icon-phone"
 viewBox="0 0 24 32">
 <path d="m19.635 18.487-2.451-.28a1.92 1.92 0 0 0-1.582.55l-1.775 1.775a14.514 14.514 0 0 1-6.359-6.359l1.785-1.785c.415-.415.618-.994.55-1.582l-.28-2.432a1.931 1.931 0 0 0-1.92-1.708H5.934c-1.09 0-1.997.907-1.93 1.997.511 8.24 7.102 14.821 15.332 15.332 1.09.068 1.997-.839 1.997-1.93v-1.669a1.913 1.913 0 0 0-1.698-1.911z"/>
 </symbol>
<symbol id="icon-close" viewBox="0 0 32 32">
<path d="M32 3.223l-3.223-3.223-12.777 12.777-12.777-12.777-3.223 3.223 12.777 12.777-12.777 12.777 3.223 3.223 12.777-12.777 12.777 12.777 3.223-3.223-12.777-12.777 12.777-12.777z"></path>
</symbol>
<symbol id="icon-Client-6" 
viewBox="0 0 59 32">
<path d="M30.588 15.682a1.685 1.685 0 0 1-.346-1.138v-1.65c0-.506.115-.89.344-1.153s.624-.394 1.183-.393c.525 0 .898.112 1.119.336.24.286.358.635.331.987v.388h-.94v-.393a2.056 2.056 0 0 0-.027-.384.373.373 0 0 0-.134-.228.541.541 0 0 0-.34-.089.577.577 0 0 0-.358.094.443.443 0 0 0-.156.252 1.93 1.93 0 0 0-.037.408v2.003c-.015.193.027.387.121.562.047.06.112.107.188.136s.16.041.242.032c.12.009.24-.024.333-.091a.4.4 0 0 0 .14-.243 2.16 2.16 0 0 0 .029-.401v-.406h.94v.371c.026.367-.088.732-.325 1.038-.216.245-.584.368-1.125.368s-.949-.131-1.181-.403zM34.501 15.699c-.237-.257-.356-.631-.356-1.127v-1.736c0-.49.119-.861.356-1.113s.634-.377 1.191-.376c.553 0 .947.125 1.185.376.237.252.358.623.358 1.113v1.736c0 .49-.121.866-.362 1.125s-.634.388-1.181.388-.951-.131-1.191-.386zm1.628-.417a.968.968 0 0 0 .113-.514v-2.125a.943.943 0 0 0-.111-.504c-.048-.061-.114-.109-.192-.138s-.164-.04-.248-.03c-.084-.01-.17 0-.248.03s-.145.077-.193.138a.922.922 0 0 0-.113.504v2.136a.95.95 0 0 0 .113.514c.055.054.122.098.198.127a.68.68 0 0 0 .484 0 .59.59 0 0 0 .198-.127v-.01zM38.364 11.398h1.012l.761 3.203.778-3.203h.984l.099 4.623h-.728l-.078-3.213-.751 3.213h-.584l-.778-3.225-.072 3.225h-.735l.091-4.623zM43.133 11.398h1.576c.908 0 1.362.438 1.362 1.313 0 .838-.478 1.257-1.434 1.256H44.1v2.055h-.973l.006-4.623zm1.346 1.976c.096.011.194.003.286-.022s.177-.067.249-.124a.744.744 0 0 0 .14-.522 1.457 1.457 0 0 0-.047-.42c-.014-.046-.038-.089-.072-.127s-.075-.069-.123-.093a1.012 1.012 0 0 0-.434-.074h-.377v1.382h.377zM47.474 11.398h1.045l1.072 4.623h-.907l-.212-1.066h-.932l-.218 1.066h-.92l1.072-4.623zm.893 3.021-.364-1.941-.364 1.941h.728zM50.456 11.398h.681l1.304 2.637v-2.637h.807v4.623H52.6l-1.311-2.753v2.753h-.835l.002-4.623zM55.139 14.258l-1.084-2.854h.912l.661 1.833.621-1.833h.893l-1.07 2.854v1.763h-.934v-1.763zM32.09 18.042v.242h-.794v1.879h-.333v-1.879h-.798v-.242h1.924zM34.578 20.163h-.257a.119.119 0 0 1-.072-.02.113.113 0 0 1-.043-.049l-.23-.504h-1.101l-.23.504a.136.136 0 0 1-.035.057.119.119 0 0 1-.072.02h-.257l.973-2.12h.339l.984 2.112zm-1.61-.788h.918l-.389-.863a1.447 1.447 0 0 1-.072-.2l-.037.113-.035.089-.385.861zM36.256 19.954c.061.003.122.003.183 0 .053-.005.105-.013.156-.025.048-.01.094-.023.14-.039.043-.015.086-.034.13-.052v-.477h-.389c-.01 0-.019-.001-.028-.004a.07.07 0 0 1-.039-.03.038.038 0 0 1-.005-.021v-.163h.755v.813a1.497 1.497 0 0 1-.654.217 2.687 2.687 0 0 1-.284.013 1.497 1.497 0 0 1-.49-.079 1.178 1.178 0 0 1-.389-.222 1.028 1.028 0 0 1-.251-.336 1.07 1.07 0 0 1-.09-.44 1.099 1.099 0 0 1 .088-.443.97.97 0 0 1 .251-.336 1.19 1.19 0 0 1 .389-.22c.167-.054.343-.081.521-.079.091 0 .181.006.27.018a1.303 1.303 0 0 1 .427.138c.06.033.116.07.169.111l-.093.131c-.007.012-.018.022-.032.029s-.029.011-.044.011a.123.123 0 0 1-.06-.017 1.127 1.127 0 0 1-.095-.05.947.947 0 0 0-.13-.057 1.208 1.208 0 0 0-.426-.065 1.165 1.165 0 0 0-.376.059.835.835 0 0 0-.286.168.734.734 0 0 0-.181.264.99.99 0 0 0 0 .707c.043.1.109.191.195.267.08.073.177.13.284.168.124.037.255.051.385.042zM39.357 19.921h1.062v.242h-1.387v-2.12h.333l-.008 1.879zM41.524 20.162h-.333v-2.12h.333v2.12zM42.761 18.052c.02.01.037.023.051.039l1.422 1.598a.482.482 0 0 1 0-.076V18.033h.29v2.129h-.167a.146.146 0 0 1-.072-.012.211.211 0 0 1-.053-.04l-1.42-1.597v1.649h-.278v-2.12h.173a.14.14 0 0 1 .054.01zM46.974 18.042v.233h-1.179v.7h.955v.225h-.955v.724h1.179v.233h-1.521v-2.115h1.521zM12.112 4.948l14.772 3.619V21.25l-14.772-3.618V4.947zm-.948-1.081v14.382l16.666 4.084V7.953L11.164 3.867z"/>
<path d="M20.096 29.01 3.429 24.922V10.541l16.667 4.086v14.382z"/>
<path d="m11.44 4.785 14.58 3.574-6.2 5.352-14.582-3.576 6.202-5.35zm-.276-.918-7.735 6.675 16.667 4.086 7.733-6.675-16.666-4.086zM21.034 28.201l6.796-5.866-6.796-1.667V28.2z"/>
</symbol>
<symbol id="icon-Client-5" 
viewBox="0 0 59 32">
<path d="M15.31 25.356c.14.156.215.352.211.553.007.131-.019.262-.075.383s-.143.229-.252.316c-.273.185-.61.276-.951.255h-1.671v-3.504h1.637c.323-.019.644.063.907.233.106.08.189.18.245.294s.08.238.073.361a.76.76 0 0 1-.19.536.91.91 0 0 1-.498.274.975.975 0 0 1 .565.3zm-1.961-.529h.7a.719.719 0 0 0 .445-.116c.053-.043.093-.096.12-.155s.037-.123.031-.187a.397.397 0 0 0-.148-.342.733.733 0 0 0-.458-.118h-.688v.919zm1.213 1.344c.056-.044.1-.099.129-.161s.041-.129.036-.195c.004-.068-.009-.135-.038-.198s-.074-.118-.131-.162a.786.786 0 0 0-.475-.127h-.734v.964h.744a.794.794 0 0 0 .47-.122zM18.656 26.862l-.911-1.369h-.342v1.369h-.783v-3.504h1.483c.374-.023.744.083 1.033.298.207.19.332.441.353.707s-.066.529-.242.743a1.245 1.245 0 0 1-.707.356l.97 1.4h-.852zm-1.253-1.847h.641c.445 0 .667-.177.667-.531.005-.072-.008-.145-.036-.212s-.072-.13-.128-.181a.75.75 0 0 0-.504-.142h-.648l.008 1.067zM22.939 26.157h-1.561l-.276.705h-.821l1.434-3.465h.888l1.428 3.465h-.822l-.27-.705zm-.209-.53-.57-1.479-.57 1.479h1.141zM28.299 26.863h-.778l-1.744-2.383v2.383h-.776v-3.504h.776l1.744 2.397v-2.397h.778v3.504zM32.737 26.024c-.161.265-.406.48-.704.618a2.5 2.5 0 0 1-1.093.221h-1.384v-3.504h1.384c.378-.009.754.065 1.093.216.298.135.543.348.704.611.16.285.243.6.243.919s-.083.634-.243.919zm-.89-.084c.222-.233.344-.529.344-.836s-.122-.603-.344-.836a1.448 1.448 0 0 0-.974-.298h-.54v2.268h.54c.355.02.705-.087.974-.298zM23.425 3.867s10.038 3.412 9.825 8.349v8.351s-10.031-3.413-9.821-8.351l-.004-8.349zM42.194 18.611c1.896-1.175 4.089-1.902 6.378-2.116v-2.614c-2.638.915-4.875 2.575-6.378 4.73z"/>
<path d="M41.055 19.399c1.552-2.813 4.242-4.983 7.517-6.065V5.802s-14.296 4.86-13.993 11.891v11.889s.637-.217 1.639-.625c0-.38 0-.764.046-1.149.296-3.264 2.02-6.289 4.792-8.409z"/>
<path d="M39.695 23.815c.075-.825.243-1.64.5-2.434-1.726 1.831-2.772 4.103-2.989 6.497-.021.226-.032.452-.038.685a43.581 43.581 0 0 0 2.75-1.304 11.103 11.103 0 0 1-.222-3.443zM40.264 23.858a10.594 10.594 0 0 0 .177 3.117c3.906-2.104 8.294-5.355 8.125-9.284v-.342c-2.791.281-5.401 1.379-7.431 3.126a10.75 10.75 0 0 0-.871 3.383z"/>
</symbol>
<symbol id="icon-Client-4"
 viewBox="0 0 59 32">
 <path d="M13.759 12.296h-.002c-1.363 0-2.468.996-2.468 2.225v.002c0 1.229 1.105 2.225 2.468 2.225h.002c1.363 0 2.468-.996 2.468-2.225v-.002c0-1.229-1.105-2.225-2.468-2.225zM31.978 11.585c-.004-1.707-.758-3.343-2.096-4.551s-3.153-1.887-5.047-1.891c-1.894.003-3.709.683-5.049 1.89s-2.094 2.844-2.098 4.552v9.414s14.288-1.435 14.289-9.412v-.001zM6.286 24.088c.003 1.188.528 2.326 1.46 3.166s2.194 1.314 3.511 1.317c1.317-.003 2.579-.477 3.511-1.317s1.456-1.978 1.46-3.165v-6.55s-9.942.999-9.942 6.549zm4.971 1.174c-.258 0-.509-.069-.723-.198s-.381-.312-.479-.527-.124-.45-.074-.678c.05-.228.174-.437.356-.601s.414-.276.666-.321c.252-.045.514-.022.752.067s.441.239.584.432a1.093 1.093 0 0 1 .121 1.103c-.065.143-.161.273-.282.382s-.265.196-.423.256-.328.09-.499.09v-.004zM20.348 23.151v2.438h-.502v-2.438h.502zm.971 1.042v.392h-1.108v-.392h1.108zm.117-1.042v.393h-1.225v-.393h1.225zm2.294 1.162v.116c0 .185-.025.352-.075.499s-.121.273-.213.377a.919.919 0 0 1-.328.236 1.039 1.039 0 0 1-.42.082c-.153 0-.293-.027-.42-.082a.946.946 0 0 1-.328-.236 1.09 1.09 0 0 1-.216-.377 1.548 1.548 0 0 1-.075-.499v-.116c0-.186.025-.353.075-.499.05-.147.121-.273.213-.377a.938.938 0 0 1 .328-.238c.127-.055.267-.082.42-.082.154 0 .294.027.42.082a.912.912 0 0 1 .328.238c.093.104.164.229.214.377.051.146.077.312.077.499zm-.508.116v-.119c0-.13-.012-.243-.035-.342s-.058-.181-.104-.248a.46.46 0 0 0-.393-.203.458.458 0 0 0-.392.203c-.045.067-.079.15-.102.248s-.035.212-.035.342v.119c0 .128.012.242.035.341a.744.744 0 0 0 .104.249c.046.067.102.118.167.152s.141.052.226.052.16-.017.226-.052a.454.454 0 0 0 .166-.152.764.764 0 0 0 .102-.249c.023-.099.035-.213.035-.341zm2.138.522a.326.326 0 0 0-.02-.117.221.221 0 0 0-.07-.097c-.035-.03-.083-.06-.146-.089s-.143-.059-.243-.09a3.168 3.168 0 0 1-.315-.121 1.28 1.28 0 0 1-.261-.156.688.688 0 0 1-.177-.209.58.58 0 0 1-.064-.276c0-.102.022-.194.067-.276a.63.63 0 0 1 .188-.214.88.88 0 0 1 .285-.139 1.3 1.3 0 0 1 .363-.049c.18 0 .337.032.47.097s.238.154.311.266a.683.683 0 0 1 .112.387h-.499a.382.382 0 0 0-.045-.188.304.304 0 0 0-.134-.129.48.48 0 0 0-.224-.047.518.518 0 0 0-.218.04.297.297 0 0 0-.131.105.262.262 0 0 0-.044.147c0 .041.01.079.03.112.021.034.052.065.094.094s.092.056.152.082c.06.026.13.051.209.075.133.04.249.085.35.136.102.05.186.107.254.169a.624.624 0 0 1 .206.483c0 .106-.021.201-.062.285s-.101.155-.179.213c-.078.058-.171.102-.28.132s-.229.045-.363.045a1.4 1.4 0 0 1-.357-.047 1.072 1.072 0 0 1-.32-.146c-.095-.065-.171-.147-.228-.248s-.085-.219-.085-.357h.504c0 .076.012.14.035.192s.056.095.099.127a.426.426 0 0 0 .154.07c.06.015.126.022.198.022a.527.527 0 0 0 .214-.037.272.272 0 0 0 .126-.102.268.268 0 0 0 .042-.147zm1.934-1.8v2.438h-.501v-2.438h.501zm.75 0v.393h-1.989v-.393h1.989zm1.922 2.046v.392h-1.297v-.392h1.297zm-1.134-2.046v2.438h-.502v-2.438h.502zm.965.993v.382h-1.128v-.382h1.128zm.167-.993v.393h-1.296v-.393h1.296zm.295 0h.909c.186 0 .346.028.48.084.135.056.239.138.311.248s.109.244.109.403a.773.773 0 0 1-.067.337.63.63 0 0 1-.186.233.965.965 0 0 1-.28.147l-.159.084h-.79l-.003-.392h.588c.088 0 .161-.016.219-.047s.102-.075.131-.131a.403.403 0 0 0 .045-.194c0-.078-.015-.146-.044-.203s-.073-.1-.132-.131-.133-.045-.223-.045h-.407v2.044h-.502V23.15zm1.362 2.438-.556-1.086.531-.003.562 1.066v.023h-.537zm2.637-.869h-.621v-.392h.621a.51.51 0 0 0 .234-.047c.06-.032.104-.077.132-.134s.042-.121.042-.192c0-.073-.014-.14-.042-.203s-.072-.113-.132-.151-.138-.057-.234-.057h-.447v2.044h-.502V23.15h.949c.191 0 .354.035.49.104a.742.742 0 0 1 .424.696c0 .157-.036.294-.109.408s-.177.204-.315.266c-.136.062-.3.094-.49.094zm2.896.477v.392h-1.297v-.392h1.297zm-1.133-2.046v2.438h-.502v-2.438h.502zm.964.993v.382h-1.128v-.382h1.128zm.168-.993v.393h-1.296v-.393h1.296zm1.418 0v2.438h-.501v-2.438h.501zm.75 0v.393h-1.989v-.393h1.989zm1.921 2.046v.392h-1.297v-.392h1.297zm-1.133-2.046v2.438h-.502v-2.438h.502zm.964.993v.382h-1.128v-.382h1.128zm.168-.993v.393h-1.296v-.393h1.296zm.294 0h.909c.186 0 .347.028.48.084.135.056.239.138.311.248s.109.244.109.403a.773.773 0 0 1-.067.337.63.63 0 0 1-.186.233.965.965 0 0 1-.28.147l-.159.084h-.79l-.003-.392h.588c.088 0 .161-.016.219-.047s.102-.075.131-.131a.403.403 0 0 0 .045-.194c0-.078-.014-.146-.044-.203s-.073-.1-.132-.131a.489.489 0 0 0-.223-.045h-.407v2.044h-.502V23.15zm1.363 2.438-.556-1.086.531-.003.563 1.066v.023h-.537zm2.103-.638a.326.326 0 0 0-.02-.117.221.221 0 0 0-.07-.097c-.035-.03-.083-.06-.146-.089s-.143-.059-.243-.09a3.076 3.076 0 0 1-.315-.121 1.28 1.28 0 0 1-.261-.156.58.58 0 0 1-.242-.485c0-.102.022-.194.067-.276a.63.63 0 0 1 .188-.214.88.88 0 0 1 .285-.139c.111-.032.232-.049.363-.049.18 0 .337.032.47.097s.238.154.311.266a.683.683 0 0 1 .112.387h-.499a.382.382 0 0 0-.045-.188.304.304 0 0 0-.134-.129.48.48 0 0 0-.224-.047.518.518 0 0 0-.218.04.297.297 0 0 0-.131.105.262.262 0 0 0-.044.147c0 .041.01.079.03.112.021.034.052.065.094.094s.092.056.152.082c.06.026.13.051.209.075.133.04.249.085.35.136.102.05.186.107.254.169a.624.624 0 0 1 .206.483c0 .106-.021.201-.062.285s-.101.155-.179.213c-.078.058-.171.102-.28.132s-.229.045-.363.045a1.4 1.4 0 0 1-.357-.047 1.072 1.072 0 0 1-.32-.146c-.095-.065-.171-.147-.228-.248s-.085-.219-.085-.357h.504c0 .076.012.14.035.192s.056.095.099.127a.426.426 0 0 0 .154.07c.06.015.126.022.198.022a.527.527 0 0 0 .214-.037.272.272 0 0 0 .126-.102.268.268 0 0 0 .042-.147z"/> 
 </symbol><symbol id="icon-Client-3"
  viewBox="0 0 59 32">
  <path d="M21.034 28.128c.009 0 .018.002.027.005s.016.008.022.014l.126.119a1.034 1.034 0 0 1-.355.225 1.4 1.4 0 0 1-.503.081 1.348 1.348 0 0 1-.473-.076 1.044 1.044 0 0 1-.357-.213.935.935 0 0 1-.23-.329 1.08 1.08 0 0 1-.08-.422 1.006 1.006 0 0 1 .087-.423.99.99 0 0 1 .244-.329 1.14 1.14 0 0 1 .379-.214c.155-.051.321-.077.487-.076.155-.003.309.02.453.069.125.046.24.111.339.19l-.106.127a.087.087 0 0 1-.027.023.07.07 0 0 1-.043.009.107.107 0 0 1-.046-.014l-.057-.034-.079-.043a.9.9 0 0 0-.25-.076 1.181 1.181 0 0 0-.538.043.73.73 0 0 0-.452.412.857.857 0 0 0-.065.334c-.002.116.02.23.065.34a.73.73 0 0 0 .437.408.96.96 0 0 0 .325.054c.064.001.129-.003.192-.011a.784.784 0 0 0 .417-.174.105.105 0 0 1 .06-.022zM24.678 27.532c.002.143-.027.285-.085.419-.051.122-.132.233-.238.326s-.232.166-.373.214c-.309.101-.65.101-.959 0a1.127 1.127 0 0 1-.371-.214.956.956 0 0 1-.24-.329 1.074 1.074 0 0 1 0-.84.982.982 0 0 1 .24-.33c.106-.09.232-.16.371-.206.308-.102.651-.102.959 0 .14.049.267.122.372.214a.958.958 0 0 1 .323.747zm-.331 0a.892.892 0 0 0-.06-.337.687.687 0 0 0-.436-.411 1.122 1.122 0 0 0-.697 0 .747.747 0 0 0-.267.159.678.678 0 0 0-.17.252.976.976 0 0 0 0 .674.703.703 0 0 0 .437.41c.225.072.472.072.697 0a.7.7 0 0 0 .436-.41.873.873 0 0 0 .06-.337zM27.164 27.885l.033.076.036-.076a.768.768 0 0 1 .041-.074l.806-1.252c.016-.022.03-.035.046-.039a.21.21 0 0 1 .066-.007h.238v2.036h-.282v-1.56a.41.41 0 0 1 0-.07l-.811 1.269c-.01.019-.027.035-.047.046s-.045.017-.069.017h-.046c-.025 0-.049-.006-.069-.017s-.037-.027-.047-.047l-.834-1.277V28.545h-.273v-2.032h.238a.21.21 0 0 1 .066.007c.02.008.035.022.044.039l.823 1.253c.016.023.03.047.041.073zM30.197 27.784v.763h-.316v-2.034h.704a1.57 1.57 0 0 1 .393.044.793.793 0 0 1 .278.127.53.53 0 0 1 .158.199.619.619 0 0 1 .054.26.56.56 0 0 1-.228.463.822.822 0 0 1-.279.135 1.347 1.347 0 0 1-.38.047l-.382-.005zm0-.218h.382a.907.907 0 0 0 .244-.031.554.554 0 0 0 .177-.088.38.38 0 0 0 .145-.306c.004-.057-.007-.113-.032-.166s-.062-.1-.11-.139a.69.69 0 0 0-.424-.109h-.382v.838zM34.437 28.549h-.249a.116.116 0 0 1-.11-.066l-.215-.492h-1.077l-.222.492a.115.115 0 0 1-.11.066h-.249l.946-2.036h.328l.959 2.036zm-1.562-.756h.89l-.375-.829a1.33 1.33 0 0 1-.071-.191l-.036.106a.95.95 0 0 1-.035.086l-.372.828zM35.8 26.522a.131.131 0 0 1 .047.036l1.38 1.535v-1.58h.282v2.036h-.158a.16.16 0 0 1-.065-.012.161.161 0 0 1-.05-.038l-1.379-1.534a.41.41 0 0 1 0 .07v1.514h-.282v-2.036h.167a.18.18 0 0 1 .057.009zM39.834 27.739v.809h-.316v-.809l-.872-1.226h.282a.116.116 0 0 1 .068.018.187.187 0 0 1 .043.046l.546.791c.022.034.041.065.057.094s.028.058.039.086l.041-.088a.624.624 0 0 1 .054-.093l.538-.797a.208.208 0 0 1 .041-.043.107.107 0 0 1 .068-.02h.285l-.874 1.232zM27.008 23.095c.137.015.276.027.416.038 2.128-.813 3.929-2.145 5.176-3.828s1.887-3.643 1.838-5.634l-2.346-2.004c.477 2.12.254 4.313-.644 6.331s-2.436 3.783-4.441 5.098z"/>
  <path d="m26.17 23.002.063.011c2.143-1.31 3.776-3.138 4.69-5.25s1.064-4.408.433-6.594l-3.341-2.854c1.351 2.346 1.895 4.972 1.568 7.572s-1.511 5.067-3.414 7.115zM37.5 16.024c-.568 2.188-1.946 4.162-3.931 5.628-.58.43-1.205.814-1.868 1.145 1.616-.406 3.102-1.123 4.342-2.097s2.202-2.178 2.812-3.52L37.5 16.024z"/>
  <path d="m36.968 15.702-1.929-1.648c-.037 1.879-.662 3.716-1.811 5.318s-2.779 2.914-4.721 3.796h.009c.433 0 .865-.022 1.295-.066 1.815-.633 3.418-1.64 4.667-2.931s2.104-2.826 2.489-4.469zM26.449 7.112l-2.301-1.969c-2.057.679-3.827 1.873-5.077 3.426s-1.922 3.392-1.928 5.276c.008 2.082.828 4.103 2.331 5.742s3.603 2.803 5.967 3.308c2.111-2.197 3.346-4.912 3.528-7.75s-.701-5.652-2.52-8.032zM42.286 15.399c-.008-2.47-1.161-4.838-3.205-6.585s-4.815-2.731-7.707-2.739a12.47 12.47 0 0 0-3.907.621l14.09 12.039a8.056 8.056 0 0 0 .729-3.337z"/>
  </symbol>
  <symbol id="icon-Client-2" 
  viewBox="0 0 59 32">
  <path d="M28.636 3.391h-.078c-.12-.007-.24-.01-.36-.013h-.26c-.227 0-.458.006-.688.017a.451.451 0 0 0-.052 0 16.148 16.148 0 0 0-6.009 1.533l-.247.119v12.652l.578-.196a22.494 22.494 0 0 1 1.607-.477 19.624 19.624 0 0 1 4.626-.615v1.662c-.207.002-.408.007-.609.017h-.048a18.54 18.54 0 0 0-3.559.546c-1.477.37-2.901.925-4.24 1.652V4.061a16.979 16.979 0 0 1 4.448-1.809 17.043 17.043 0 0 1 4.192-.541h.244c.292.007.577.02.844.041.705.049 1.404.161 2.089.333v1.636a12.928 12.928 0 0 0-2.024-.305l-.041-.004c-.141-.012-.282-.024-.414-.024zm2.88 1.673c.363.028.739.041 1.119.041a17.95 17.95 0 0 0 4.407-.565 18.14 18.14 0 0 0 4.238-1.654v15.938a17.068 17.068 0 0 1-4.449 1.809c-1.37.352-2.778.533-4.192.539a12.76 12.76 0 0 1-3.18-.375V4.756c.246.057.499.109.756.153.422.071.867.123 1.301.155zm8.111.123-.578.195c-.532.179-1.068.339-1.608.481a19.61 19.61 0 0 1-4.804.616c-.377 0-.724-.01-1.06-.032l-.461-.03v13.015l.396.035c.367.032.746.048 1.128.048a15.335 15.335 0 0 0 3.783-.49 15.84 15.84 0 0 0 2.956-1.062l.247-.119V5.188zM20.421 25.836a.856.856 0 0 0-.643-.26.953.953 0 0 0-.372.07.828.828 0 0 0-.475.481.957.957 0 0 0-.067.359v2.168a1.03 1.03 0 0 0 .085.445c.051.111.125.21.217.291a.752.752 0 0 0 .298.154c.105.03.214.045.324.045a.906.906 0 0 0 .828-.568.873.873 0 0 0 .069-.346v-.243h-.567v.193a.506.506 0 0 1-.033.193.35.35 0 0 1-.082.122.33.33 0 0 1-.119.062.367.367 0 0 1-.119.02.283.283 0 0 1-.266-.116.512.512 0 0 1-.075-.291v-2.021a.686.686 0 0 1 .069-.324.284.284 0 0 1 .277-.13c.049-.002.097.008.141.03s.082.053.112.092a.461.461 0 0 1 .094.291v.187h.561v-.221a1.022 1.022 0 0 0-.069-.379.893.893 0 0 0-.189-.305zM23.788 25.811a1.005 1.005 0 0 0-.645-.238.976.976 0 0 0-.637.238.886.886 0 0 0-.22.304 1.01 1.01 0 0 0-.082.42v2.079c-.004.146.024.292.082.426a.838.838 0 0 0 .22.291c.087.08.188.143.299.183a.976.976 0 0 0 .982-.183.893.893 0 0 0 .296-.717v-2.079a1.01 1.01 0 0 0-.082-.42.927.927 0 0 0-.214-.304zm-.265 2.803a.377.377 0 0 1-.112.301.414.414 0 0 1-.534 0 .38.38 0 0 1-.112-.301v-2.079a.377.377 0 0 1 .112-.301.414.414 0 0 1 .534 0 .38.38 0 0 1 .112.301v2.079zM28.21 29.543v-3.936h-.545l-.716 2.084h-.01l-.721-2.084h-.539v3.936h.562v-2.395h.01l.551 1.693h.28l.555-1.693h.01v2.395h.562zM31.405 25.882a.785.785 0 0 0-.318-.215 1.254 1.254 0 0 0-.408-.061h-.835v3.936h.561v-1.537h.289c.175.008.349-.029.506-.108a.817.817 0 0 0 .308-.301.94.94 0 0 0 .129-.343c.022-.148.032-.298.03-.448a2.212 2.212 0 0 0-.055-.562.828.828 0 0 0-.207-.362zm-.289 1.2a.49.49 0 0 1-.052.205.313.313 0 0 1-.145.138.574.574 0 0 1-.265.049h-.256v-1.338h.289a.55.55 0 0 1 .253.049.32.32 0 0 1 .132.145.572.572 0 0 1 .049.219v.262c0 .092.006.186 0 .27h-.006zM34.062 25.606h-.46l-.867 3.936h.561l.165-.846h.765l.165.846h.561l-.889-3.936zm-.518 2.555.276-1.427h.01l.275 1.427h-.561zM37.686 27.978h-.01l-.847-2.371h-.539v3.936h.561v-2.367h.012l.857 2.367h.528v-3.936h-.561v2.371zM41.113 25.606l-.451 1.565h-.012l-.451-1.565h-.594l.77 2.273v1.664h.561v-1.664l.77-2.273h-.594zM18.857 30.654h.27v.759h.184v-.759h.269v-.155h-.723v.155zM21.13 30.498l-.354.914h.195l.075-.208h.364l.078.208h.2l-.363-.914h-.195zm-.029.553.124-.339.124.339H21.1zM23.376 31.076h.211v.118a.357.357 0 0 1-.217.077.23.23 0 0 1-.193-.087.39.39 0 0 1-.068-.238c0-.203.088-.305.263-.305a.194.194 0 0 1 .207.145l.181-.035c-.039-.179-.168-.269-.387-.269a.458.458 0 0 0-.319.118.457.457 0 0 0-.131.351.498.498 0 0 0 .117.343.446.446 0 0 0 .347.134.548.548 0 0 0 .387-.145v-.36h-.396v.154zM25.67 30.498h-.185v.914h.64v-.155h-.455v-.759zM27.61 30.498h-.185v.914h.185v-.914zM29.507 31.109l-.374-.61h-.179v.914h.172v-.597l.367.597h.184v-.914h-.169v.61zM31.221 31.01h.455v-.155h-.455v-.201h.49v-.155h-.675v.914h.694v-.155h-.509v-.247zM35.378 30.859h-.36v-.36h-.184v.914h.184v-.4h.36v.4h.184v-.914h-.184v.36zM37.103 31.01h.457v-.155h-.457v-.201h.492v-.155h-.675v.914h.692v-.155h-.509v-.247zM39.442 31.01c.159-.025.24-.109.24-.254a.213.213 0 0 0-.09-.203.516.516 0 0 0-.267-.054h-.387v.914h.184v-.382h.036a.262.262 0 0 1 .114.02c.027.017.049.04.065.067l.2.291h.22l-.111-.179a.642.642 0 0 0-.202-.219zm-.185-.126h-.136v-.23h.145a.476.476 0 0 1 .187.022.117.117 0 0 1 .04.095c-.001.018-.006.035-.014.051s-.02.029-.035.04a.536.536 0 0 1-.187.022zM41.206 31.01h.455v-.155h-.455v-.201h.492v-.155h-.676v.914h.694v-.155h-.509v-.247z"/></symbol>
  <symbol id="icon-Client-1"
   viewBox="0 0 28 32">
   <path d="m4.085 0 4.771 4.546L0 4.541v22.054h23.149v-8.432l4.766 4.541V.001H4.085zm18.854 17.629L9.411 4.74h13.528v12.889zm-4.2 5.74H3.663V8.536h1.066v13.828h14.01v1.004zM6.67 30.68l-.562-1.155h-.464l.814 1.529v.891h.421v-.891l.814-1.529h-.462l-.562 1.155zm2.071-1.155h.1l.914 2.42h-.439l-.196-.567h-.937l-.195.567h-.437l.911-2.42h.279zm-.444 1.522h.709l-.355-1.027-.354 1.027zm2.925-.401-.053-.068a1.266 1.266 0 0 1-.145-.238.647.647 0 0 1 .026-.565.519.519 0 0 1 .221-.209.71.71 0 0 1 .334-.075c.123 0 .229.025.317.075.09.049.158.114.206.194.049.081.073.17.073.266 0 .076-.014.146-.042.209s-.066.121-.115.173a1.188 1.188 0 0 1-.17.148l-.168.122.479.566a.966.966 0 0 0 .105-.452h.346c0 .117-.012.229-.035.334a1.039 1.039 0 0 1-.177.4l.355.418h-.464l-.141-.165a.952.952 0 0 1-.248.136 1.107 1.107 0 0 1-.376.063c-.161 0-.3-.029-.417-.088s-.208-.14-.273-.243a.665.665 0 0 1-.095-.354c0-.099.021-.185.061-.259a.797.797 0 0 1 .168-.209c.066-.059.14-.119.224-.178zm.198.243-.05.036a.61.61 0 0 0-.131.138.394.394 0 0 0-.023.409.344.344 0 0 0 .135.138c.06.033.132.05.218.05a.62.62 0 0 0 .391-.137l-.539-.633zm.096-.442.148-.1a.552.552 0 0 0 .15-.136.3.3 0 0 0 .045-.17.241.241 0 0 0-.255-.233.246.246 0 0 0-.231.143.338.338 0 0 0-.028.141c0 .05.013.101.038.155a.994.994 0 0 0 .133.2zm4.234.71h-.416a.776.776 0 0 1-.076.268.383.383 0 0 1-.168.165.626.626 0 0 1-.288.056c-.098 0-.181-.019-.251-.058s-.127-.094-.173-.165a.822.822 0 0 1-.1-.254 1.62 1.62 0 0 1-.032-.332v-.204c0-.129.012-.243.035-.342.024-.101.06-.186.108-.254s.107-.121.178-.156a.557.557 0 0 1 .249-.053c.116 0 .211.02.283.06a.378.378 0 0 1 .163.17.756.756 0 0 1 .073.268h.416a1.046 1.046 0 0 0-.136-.43c-.073-.125-.176-.223-.309-.294s-.296-.106-.489-.106c-.152 0-.289.027-.411.08a.862.862 0 0 0-.311.231c-.086.1-.153.22-.2.361a1.546 1.546 0 0 0-.068.472v.201c0 .174.022.331.067.472.045.141.111.261.196.361a.878.878 0 0 0 .307.229c.12.053.254.08.404.08.195 0 .361-.035.497-.106s.242-.168.317-.291a.958.958 0 0 0 .133-.424zm2.309-.356v-.133c0-.183-.024-.346-.073-.49a1.08 1.08 0 0 0-.204-.371.868.868 0 0 0-.317-.234 1.005 1.005 0 0 0-.409-.081c-.148 0-.284.027-.407.081a.876.876 0 0 0-.317.234 1.084 1.084 0 0 0-.206.371 1.52 1.52 0 0 0-.073.49v.133c0 .183.024.347.073.492.05.145.12.269.209.371s.196.18.317.234c.123.053.259.08.407.08.15 0 .286-.027.409-.08a.879.879 0 0 0 .316-.234c.089-.102.157-.226.204-.371s.072-.309.072-.492zm-.417-.136v.136c0 .135-.013.255-.04.359a.777.777 0 0 1-.113.264.493.493 0 0 1-.431.214.556.556 0 0 1-.246-.053.527.527 0 0 1-.186-.161c-.051-.072-.09-.16-.116-.264s-.04-.224-.04-.359v-.136c0-.135.013-.254.04-.357a.784.784 0 0 1 .115-.261.5.5 0 0 1 .43-.215c.092 0 .175.018.248.055a.47.47 0 0 1 .184.16c.051.07.089.157.115.261.027.103.04.222.04.357z"/>
   </symbol>

<symbol id="icon-astronaut" viewBox="0 0 32 32">
<path d="M31.974 4.524c-0.063-0.193-0.229-0.333-0.43-0.363l-1.91-0.278-0.855-1.731c-0.179-0.365-0.777-0.365-0.956 0l-0.855 1.731-1.91 0.278c-0.201 0.029-0.367 0.17-0.431 0.363-0.062 0.193-0.011 0.405 0.135 0.547l1.383 1.348-0.326 1.903c-0.034 0.2 0.048 0.402 0.212 0.522 0.166 0.121 0.382 0.135 0.562 0.040l1.709-0.899 1.709 0.899c0.078 0.041 0.164 0.061 0.249 0.061 0.11 0 0.221-0.034 0.314-0.102 0.164-0.119 0.246-0.322 0.212-0.522l-0.326-1.903 1.383-1.348c0.145-0.142 0.197-0.354 0.135-0.547zM29.511 5.851c-0.125 0.122-0.183 0.299-0.153 0.472l0.191 1.114-1-0.526c-0.078-0.041-0.163-0.061-0.249-0.061s-0.17 0.020-0.249 0.061l-1.001 0.526 0.191-1.114c0.030-0.173-0.028-0.349-0.153-0.472l-0.81-0.789 1.119-0.163c0.174-0.025 0.324-0.134 0.402-0.292l0.5-1.013 0.5 1.013c0.078 0.157 0.228 0.267 0.402 0.292l1.119 0.163-0.809 0.789z"></path>
<path d="M26.133 20.522h-1.067v1.067h1.067v-1.067z"></path>
<path d="M26.133 22.656h-1.067v1.067h1.067v-1.067z"></path>
<path d="M27.2 21.589h-1.067v1.067h1.067v-1.067z"></path>
<path d="M25.067 21.589h-1.067v1.067h1.067v-1.067z"></path>
<path d="M22.4 26.389h-1.067v1.067h1.067v-1.067z"></path>
<path d="M22.4 28.522h-1.067v1.067h1.067v-1.067z"></path>
<path d="M23.467 27.456h-1.067v1.067h1.067v-1.067z"></path>
<path d="M21.333 27.456h-1.067v1.067h1.067v-1.067z"></path>
<path d="M16 24.256h-1.067v1.067h1.067v-1.067z"></path>
<path d="M16 26.389h-1.067v1.067h1.067v-1.067z"></path>
<path d="M17.067 25.322h-1.067v1.067h1.067v-1.067z"></path>
<path d="M14.933 25.322h-1.067v1.067h1.067v-1.067z"></path>
<path d="M5.867 6.122h-1.067v1.067h1.067v-1.067z"></path>
<path d="M5.867 8.255h-1.067v1.067h1.067v-1.067z"></path>
<path d="M6.933 7.189h-1.067v1.067h1.067v-1.067z"></path>
<path d="M4.8 7.189h-1.067v1.067h1.067v-1.067z"></path>
<path d="M24.715 14.159c-0.287-0.388-0.709-0.637-1.188-0.705-0.481-0.068-0.956 0.058-1.34 0.352l-1.252 0.96-1.898 1.417-1.358-0.541c2.421-1.086 4.114-3.508 4.114-6.32 0-3.823-3.123-6.933-6.961-6.933s-6.961 3.11-6.961 6.933c0 1.386 0.414 2.674 1.12 3.758l-2.764-0.024c-0.002 0-0.003 0-0.005 0-0.009 0-0.015 0.004-0.023 0.005-0.053 0.002-0.105 0.013-0.155 0.031-0.013 0.005-0.026 0.008-0.038 0.013-0.006 0.003-0.013 0.003-0.019 0.006l-3.233 1.596c-0.001 0-0.001 0-0.001 0.001l-1.893 0.911c-0.021 0.009-0.042 0.021-0.063 0.035-0.755 0.502-1.012 1.489-0.598 2.295 0.22 0.429 0.595 0.745 1.056 0.889 0.178 0.055 0.359 0.083 0.539 0.083 0.29 0 0.577-0.071 0.839-0.211l1.388-0.738 2.264-1.169 1.357-0.008-5.442 5.416c-0.001 0.001-0.001 0.001-0.002 0.001l-1.339 1.333c-0.316 0.315-0.49 0.732-0.49 1.178s0.174 0.863 0.49 1.179c0.325 0.323 0.752 0.485 1.179 0.485s0.854-0.162 1.18-0.485l1.314-1.309 1.741-1.3 0.901 0.897-1.762 1.754c-0 0.001-0.001 0.001-0.002 0.001l-1.339 1.333c-0.316 0.315-0.49 0.732-0.49 1.178s0.174 0.863 0.49 1.179c0.325 0.323 0.753 0.485 1.18 0.485s0.855-0.162 1.18-0.485l3.482-3.467c0.001-0.001 0.001-0.001 0.001-0.002l1.010-1-0.004-0.004c0.006-0.006 0.015-0.009 0.022-0.015l5.166-5.658 3.471 0.494c0.025 0.004 0.050 0.005 0.075 0.005 0.065 0 0.127-0.015 0.187-0.038 0.018-0.006 0.033-0.015 0.050-0.023 0.019-0.010 0.039-0.015 0.058-0.027l3.213-2.133c0.012-0.008 0.018-0.021 0.029-0.029 0.013-0.010 0.029-0.014 0.041-0.026l1.271-1.191c0.662-0.62 0.753-1.635 0.212-2.362zM2.13 17.77c-0.173 0.093-0.37 0.111-0.558 0.052-0.187-0.058-0.338-0.186-0.427-0.358-0.161-0.314-0.068-0.695 0.214-0.902l1.314-0.632 0.449 1.313-0.992 0.527zM5.628 15.942l-1.548 0.8-0.439-1.283 2.027-1.001-0.040 1.484zM20.727 9.322c0 0.918-0.219 1.785-0.599 2.559l-4.181-1.899c-0.044-0.573-0.341-1.075-0.788-1.388l1.464-4.86c2.378 0.756 4.105 2.974 4.105 5.588zM8.938 9.322c0-3.235 2.644-5.867 5.894-5.867 0.253 0 0.5 0.021 0.745 0.052l-1.432 4.754c-0.019-0.001-0.037-0.006-0.057-0.006-1.033 0-1.873 0.837-1.873 1.867s0.84 1.867 1.873 1.867c0.694 0 1.294-0.383 1.618-0.945l3.862 1.755c-1.075 1.446-2.795 2.39-4.737 2.39-3.25 0-5.894-2.632-5.894-5.867zM14.894 10.122c0 0.441-0.362 0.8-0.806 0.8s-0.806-0.359-0.806-0.8c0-0.441 0.362-0.8 0.806-0.8s0.806 0.359 0.806 0.8zM2.465 25.146c-0.236 0.234-0.619 0.234-0.854 0.001-0.114-0.114-0.176-0.263-0.176-0.423s0.062-0.309 0.176-0.421l0.962-0.958 0.851 0.848-0.959 0.955zM5.679 28.88c-0.236 0.234-0.619 0.235-0.855 0.001-0.114-0.114-0.176-0.263-0.176-0.423s0.062-0.309 0.176-0.421l0.963-0.959 0.852 0.848-0.96 0.955zM9.16 25.411c-0.001 0-0.001 0-0.002 0.001l-1.765 1.76-0.852-0.848 1.763-1.755c0 0 0 0 0-0s0.001-0.001 0.002-0.001c0.040-0.040 0.065-0.088 0.090-0.135 0.007-0.014 0.020-0.026 0.026-0.040 0.017-0.041 0.019-0.085 0.026-0.129 0.003-0.025 0.014-0.047 0.014-0.073 0-0.036-0.013-0.070-0.020-0.106-0.006-0.032-0.006-0.065-0.019-0.095-0.020-0.050-0.055-0.094-0.091-0.138-0.010-0.012-0.014-0.027-0.025-0.038 0 0 0 0-0.001 0s-0.001-0.002-0.001-0.002l-1.607-1.6c-0.017-0.017-0.039-0.024-0.058-0.038-0.028-0.022-0.055-0.042-0.087-0.058-0.030-0.015-0.061-0.024-0.093-0.033-0.034-0.010-0.067-0.017-0.103-0.020-0.033-0.002-0.063 0.001-0.095 0.005-0.036 0.004-0.069 0.009-0.104 0.020-0.034 0.011-0.063 0.027-0.094 0.045-0.020 0.011-0.042 0.015-0.061 0.029l-1.773 1.324-0.901-0.897 2.399-2.386 4.361 4.289-0.928 0.919zM15.979 18.394c-0.015-0.002-0.030 0.004-0.045 0.003-0.039-0.002-0.076 0.001-0.115 0.007-0.030 0.005-0.059 0.011-0.088 0.021-0.034 0.012-0.065 0.028-0.097 0.047-0.030 0.018-0.057 0.037-0.083 0.061-0.013 0.011-0.028 0.017-0.040 0.029l-4.698 5.146-4.328-4.257 2.833-2.818c0.209-0.208 0.21-0.546 0.002-0.755-0.105-0.105-0.243-0.157-0.381-0.156v-0.001l-2.219 0.013 0.028-1.607 3.104 0.027c1.265 1.294 3.029 2.101 4.981 2.101 0.437 0 0.864-0.045 1.279-0.123 0.040 0.032 0.079 0.065 0.13 0.085l2.41 0.96 0.152 0.758 0.178 0.885-3.003-0.427zM20.020 18.572l-0.313-1.558 1.446-1.080 0.947 1.257-2.080 1.381zM23.774 15.741l-0.838 0.785-0.931-1.236 0.831-0.637c0.155-0.119 0.351-0.168 0.543-0.143 0.193 0.027 0.364 0.128 0.48 0.284 0.217 0.292 0.18 0.699-0.085 0.947z"></path>
<path d="M13.602 18.544l-2.143-2.133c-0.207-0.207-0.545-0.207-0.753 0l-2.142 2.133c-0.1 0.101-0.157 0.236-0.157 0.378s0.056 0.278 0.157 0.378l2.142 2.133c0.104 0.103 0.241 0.155 0.377 0.155s0.273-0.052 0.376-0.155l2.143-2.133c0.1-0.1 0.157-0.236 0.157-0.378s-0.057-0.278-0.157-0.378zM11.083 20.303l-1.387-1.381 1.387-1.381 1.387 1.381-1.387 1.381z"></path>
<path d="M17.164 5.071l-0.258 1.036c0.071 0.018 1.738 0.452 1.738 2.149h1.067c-0-2.017-1.666-2.965-2.547-3.185z"></path>
<path d="M19.711 9.322h-1.067v1.067h1.067v-1.067z"></path>
</symbol>
<symbol id="icon-diagram" viewBox="0 0 32 32">
<path d="M14.925 14.965h1.066v4.798h-1.066v-4.797z"></path>
<path d="M19.19 17.097h1.066v2.665h-1.066v-2.665z"></path>
<path d="M10.661 18.696h1.066v1.066h-1.066v-1.066z"></path>
<path d="M7.463 18.163h1.066v1.599h-1.066v-1.599z"></path>
<path d="M1.599 28.291h25.587c0.883 0 1.599-0.716 1.599-1.599v-2.132c0-0.883-0.716-1.599-1.599-1.599h-0.533v-13.293l3.028-2.868c0.703 0.346 1.553 0.136 2.013-0.499s0.396-1.508-0.152-2.068-1.42-0.644-2.065-0.198c-0.644 0.446-0.873 1.292-0.542 2.002l-2.281 2.163v-1.23c0-0.883-0.716-1.599-1.599-1.599h-21.322c-0.883 0-1.599 0.716-1.599 1.599v15.992h-0.533c-0.883 0-1.599 0.716-1.599 1.599v2.132c0 0.883 0.716 1.599 1.599 1.599zM30.384 4.837c0.294 0 0.533 0.239 0.533 0.533s-0.239 0.533-0.533 0.533c-0.294 0-0.533-0.239-0.533-0.533s0.239-0.533 0.533-0.533zM3.198 6.969c0-0.294 0.239-0.533 0.533-0.533h21.322c0.294 0 0.533 0.239 0.533 0.533v2.239l-1.066 1.013v-2.186c0-0.294-0.239-0.533-0.533-0.533h-19.19c-0.294 0-0.533 0.239-0.533 0.533v13.326c0 0.294 0.239 0.533 0.533 0.533h19.19c0.294 0 0.533-0.239 0.533-0.533v-9.674l1.066-1.010v12.284h-22.388v-15.992zM7.996 13.899c-0.721-0.002-1.354 0.478-1.546 1.174s0.105 1.433 0.725 1.801c0.62 0.368 1.41 0.276 1.928-0.226l1.853 0.93c0.215 0.108 0.476 0.057 0.636-0.123l3.939-4.431 3.872 2.901c0.208 0.156 0.498 0.139 0.686-0.039l3.365-3.188v8.131h-18.124v-12.26h18.124v2.66l-3.771 3.572-3.904-2.927c-0.222-0.166-0.534-0.135-0.718 0.072l-3.993 4.493-1.493-0.746c0.011-0.064 0.018-0.129 0.020-0.193 0-0.883-0.716-1.599-1.599-1.599zM8.529 15.498c0 0.294-0.239 0.533-0.533 0.533s-0.533-0.239-0.533-0.533c0-0.294 0.239-0.533 0.533-0.533s0.533 0.239 0.533 0.533zM11.727 24.027h5.331v0.533c0 0.294-0.239 0.533-0.533 0.533h-4.264c-0.294 0-0.533-0.239-0.533-0.533v-0.533zM1.066 24.56c0-0.294 0.239-0.533 0.533-0.533h9.062v0.533c0 0.883 0.716 1.599 1.599 1.599h4.264c0.883 0 1.599-0.716 1.599-1.599v-0.533h9.062c0.294 0 0.533 0.239 0.533 0.533v2.132c0 0.294-0.239 0.533-0.533 0.533h-25.587c-0.294 0-0.533-0.239-0.533-0.533v-2.132z"></path>
</symbol>
<symbol id="icon-clock" viewBox="0 0 32 32">
<path d="M31.297 15.301c-0.002-8.452-6.855-15.303-15.308-15.301s-15.303 6.855-15.301 15.308c0.001 6.658 4.307 12.551 10.649 14.576 0.061 0.019 0.124 0.029 0.187 0.029 0.121-0 0.239-0.032 0.342-0.094 0.135-0.080 0.236-0.207 0.283-0.356l3.865-12.25c1.057-0.005 1.909-0.866 1.903-1.923s-0.866-1.909-1.923-1.903c-0.284 0.001-0.565 0.067-0.82 0.191l-5.106-5.107c-0.253-0.245-0.657-0.238-0.902 0.016-0.239 0.247-0.239 0.639 0 0.886l5.103 5.109c-0.392 0.799-0.168 1.764 0.536 2.309l-3.683 11.673c-7.278-2.681-11.004-10.754-8.323-18.032s10.754-11.004 18.032-8.323c7.278 2.681 11.004 10.754 8.323 18.032-1.31 3.556-4.001 6.431-7.462 7.973l-0.398-1.874c-0.073-0.345-0.411-0.565-0.756-0.492-0.109 0.023-0.209 0.074-0.293 0.148l-3.837 3.426c-0.263 0.234-0.287 0.637-0.052 0.9 0.076 0.085 0.174 0.149 0.283 0.184l4.899 1.564c0.335 0.108 0.694-0.077 0.802-0.412 0.034-0.106 0.040-0.219 0.017-0.328l-0.391-1.839c5.664-2.388 9.342-7.942 9.329-14.089zM15.992 14.664c0.352 0 0.638 0.286 0.638 0.638s-0.286 0.638-0.638 0.638c-0.352 0-0.638-0.285-0.638-0.638s0.285-0.638 0.638-0.638zM18.093 29.528l2.184-1.948 0.603 2.84-2.787-0.892z"></path>
<path d="M15.354 3.185v1.275c0 0.352 0.285 0.638 0.638 0.638s0.638-0.285 0.638-0.638v-1.275c0-0.352-0.286-0.638-0.638-0.638s-0.638 0.286-0.638 0.638z"></path>
<path d="M3.876 14.664c-0.352 0-0.638 0.286-0.638 0.638s0.285 0.638 0.638 0.638h1.275c0.352 0 0.638-0.285 0.638-0.638s-0.285-0.638-0.638-0.638h-1.275z"></path>
<path d="M28.108 15.939c0.352 0 0.638-0.285 0.638-0.638s-0.285-0.638-0.638-0.638h-1.275c-0.352 0-0.638 0.286-0.638 0.638s0.286 0.638 0.638 0.638h1.275z"></path>
</symbol>
<symbol id="icon-strategy" viewBox="0 0 32 32">
<path d="M30.773 22.098l-8.443-8.505 0.937-4.615c0.242 0.094 0.499 0.144 0.758 0.146h0.006c1.192 0.014 2.17-0.941 2.184-2.133s-0.941-2.17-2.133-2.184c-1.192-0.014-2.17 0.941-2.184 2.133-0.003 0.255 0.039 0.509 0.125 0.749l-4.96 0.605-8.091-8.133c-0.099-0.101-0.235-0.159-0.377-0.16-0.14 0.001-0.274 0.056-0.373 0.155l-1.513 1.504c-0.208 0.208-0.208 0.546 0 0.754l0.814 0.826c-3.153 5.798-2.129 12.978 2.519 17.663 0.043 0.041 0.092 0.074 0.146 0.098-0.034 0.18-0.051 0.364-0.052 0.547v6.187h-6.4c-1.472 0.002-2.665 1.195-2.667 2.667v1.067c0 0.295 0.239 0.533 0.533 0.533h24.533c0.295 0 0.533-0.239 0.533-0.533v-1.067c-0.002-1.472-1.195-2.665-2.667-2.667h-6.4v-2.742c1.003 0.21 2.024 0.317 3.049 0.32 2.458-0.003 4.877-0.615 7.040-1.783l0.818 0.823c0.099 0.101 0.235 0.159 0.377 0.16 0.14-0.001 0.274-0.056 0.373-0.155l1.513-1.504c0.208-0.208 0.208-0.546 0-0.754zM23.28 6.233c0.418-0.415 1.093-0.414 1.509 0.004s0.414 1.093-0.004 1.508c-0.2 0.199-0.47 0.31-0.752 0.31h-0.003c-0.589-0.003-1.064-0.483-1.061-1.072 0.002-0.282 0.115-0.552 0.314-0.751h-0.002zM22.024 9.738l-0.598 2.946-1.175-1.182 1.774-1.763zM21.419 8.836l-1.92 1.909-1.485-1.493 3.405-0.415zM24.004 28.8c0.884 0 1.6 0.716 1.6 1.6v0.533h-23.467v-0.533c0-0.884 0.716-1.6 1.6-1.6h20.267zM16.537 26.667v1.067h-5.333v-1.067h5.333zM11.204 25.6v-4.053c0-1.294 1.196-2.347 2.667-2.347s2.667 1.053 2.667 2.347v4.053h-5.333zM17.604 23.904v-2.357c0-1.882-1.675-3.413-3.733-3.413-1.331-0.020-2.576 0.657-3.281 1.786-4.058-4.274-4.971-10.645-2.279-15.887l18.602 18.708c-2.872 1.461-6.165 1.873-9.309 1.163zM28.893 23.22l-21.057-21.181 0.755-0.752 7.935 7.98c0.004 0 0.006 0.007 0.010 0.010l13.115 13.191-0.757 0.752z"></path>
<path d="M13.876 20.267h-0.005c-0.884-0.001-1.601 0.714-1.602 1.598s0.714 1.601 1.598 1.602h0.005c0.884 0.001 1.601-0.714 1.602-1.598s-0.714-1.601-1.598-1.602zM14.249 22.245c-0.1 0.1-0.236 0.156-0.378 0.155-0.295-0.002-0.532-0.242-0.531-0.536 0.001-0.141 0.057-0.276 0.157-0.375s0.233-0.154 0.373-0.155c0.295 0.002 0.532 0.242 0.531 0.536-0.001 0.141-0.057 0.276-0.157 0.375h0.005z"></path>
</symbol>
 <symbol id="icon-facebook" 
 viewBox="0 0 32 32">
 <path d="M19 6h5V0h-5c-3.86 0-7 3.14-7 7v3H8v6h4v16h6V16h5l1-6h-6V7c0-.542.458-1 1-1z"/>
 </symbol>
<symbol id="icon-instagram"
 viewBox="0 0 32 32">
 <path d="M16 2.881c4.275 0 4.781.019 6.462.094 1.563.069 2.406.331 2.969.55a4.952 4.952 0 0 1 1.837 1.194 5.015 5.015 0 0 1 1.2 1.838c.219.563.481 1.412.55 2.969.075 1.688.094 2.194.094 6.463s-.019 4.781-.094 6.463c-.069 1.563-.331 2.406-.55 2.969a4.94 4.94 0 0 1-1.194 1.837 5.02 5.02 0 0 1-1.837 1.2c-.563.219-1.413.481-2.969.55-1.688.075-2.194.094-6.463.094s-4.781-.019-6.463-.094c-1.563-.069-2.406-.331-2.969-.55a4.952 4.952 0 0 1-1.838-1.194 5.02 5.02 0 0 1-1.2-1.837c-.219-.563-.481-1.413-.55-2.969-.075-1.688-.094-2.194-.094-6.463s.019-4.781.094-6.463c.069-1.563.331-2.406.55-2.969a4.964 4.964 0 0 1 1.194-1.838 5.015 5.015 0 0 1 1.838-1.2c.563-.219 1.412-.481 2.969-.55 1.681-.075 2.188-.094 6.463-.094zM16 0c-4.344 0-4.887.019-6.594.094-1.7.075-2.869.35-3.881.744-1.056.412-1.95.956-2.837 1.85a7.833 7.833 0 0 0-1.85 2.831C.444 6.538.169 7.7.094 9.4.019 11.113 0 11.656 0 16s.019 4.887.094 6.594c.075 1.7.35 2.869.744 3.881.413 1.056.956 1.95 1.85 2.837a7.82 7.82 0 0 0 2.831 1.844c1.019.394 2.181.669 3.881.744 1.706.075 2.25.094 6.594.094s4.888-.019 6.594-.094c1.7-.075 2.869-.35 3.881-.744 1.05-.406 1.944-.956 2.831-1.844s1.438-1.781 1.844-2.831c.394-1.019.669-2.181.744-3.881.075-1.706.094-2.25.094-6.594s-.019-4.887-.094-6.594c-.075-1.7-.35-2.869-.744-3.881a7.506 7.506 0 0 0-1.831-2.844A7.82 7.82 0 0 0 26.482.843C25.463.449 24.301.174 22.601.099c-1.712-.081-2.256-.1-6.6-.1z"/>
 <path d="M16 7.781c-4.537 0-8.219 3.681-8.219 8.219s3.681 8.219 8.219 8.219 8.219-3.681 8.219-8.219A8.221 8.221 0 0 0 16 7.781zm0 13.55a5.331 5.331 0 1 1 0-10.663 5.331 5.331 0 0 1 0 10.663zM26.462 7.456a1.919 1.919 0 1 1-3.838 0 1.919 1.919 0 0 1 3.838 0z"/>
 </symbol>
 <symbol id="icon-twitter" 
 viewBox="0 0 32 32">
 <path d="M32 7.075a12.941 12.941 0 0 1-3.769 1.031 6.601 6.601 0 0 0 2.887-3.631 13.21 13.21 0 0 1-4.169 1.594A6.565 6.565 0 0 0 22.155 4a6.563 6.563 0 0 0-6.563 6.563c0 .512.056 1.012.169 1.494A18.635 18.635 0 0 1 2.23 5.195a6.56 6.56 0 0 0-.887 3.3 6.557 6.557 0 0 0 2.919 5.463 6.565 6.565 0 0 1-2.975-.819v.081a6.565 6.565 0 0 0 5.269 6.437 6.574 6.574 0 0 1-2.968.112 6.588 6.588 0 0 0 6.131 4.563 13.17 13.17 0 0 1-9.725 2.719 18.568 18.568 0 0 0 10.069 2.95c12.075 0 18.681-10.006 18.681-18.681 0-.287-.006-.569-.019-.85A13.216 13.216 0 0 0 32 7.076z"/>
 </symbol>
 <symbol id="icon-linkedin" 
 viewBox="0 0 32 32">
 <path d="M12 12h5.535v2.837h.079c.77-1.381 2.655-2.837 5.464-2.837C28.92 12 30 15.637 30 20.367V30h-5.769v-8.54c0-2.037-.042-4.657-3.001-4.657-3.005 0-3.463 2.218-3.463 4.509V30H12V12zM2 12h6v18H2V12zM8 7a3 3 0 1 1-6 0 3 3 0 0 1 6 0z"/>
 </symbol>
 <symbol id="icon-Frame-3" viewBox="0 0 32 32">
<path fill="#fff" style="fill: var(--color1, #fff)" d="M32 2.667l-32 15 10.227 3.156 15.773-12.323-11.998 13.488 0.010 0.003-0.012-0.003v7.345l5.735-5.576 7.265 2.242 5-23.333z"></path>
</symbol>
<symbol id="icon-Frame-11" viewBox="0 0 720 32">
<path fill="none" stroke="#2e2f42" style="stroke: var(--color1, #2e2f42)" stroke-linejoin="miter" stroke-linecap="butt" stroke-miterlimit="4" stroke-width="2" d="M4 1h24c1.657 0 3 1.343 3 3v24c0 1.657-1.343 3-3 3h-24c-1.657 0-3-1.343-3-3v-24c0-1.657 1.343-3 3-3z"></path>
<path fill="#8e8f99" style="fill: var(--color2, #8e8f99)" d="M52.406 6.938v17.063h-2.262v-17.063h2.262zM71.541 21.832v-6.527c0-0.5-0.101-0.934-0.305-1.301-0.195-0.375-0.492-0.664-0.891-0.867s-0.891-0.305-1.477-0.305c-0.547 0-1.027 0.094-1.441 0.281-0.406 0.188-0.727 0.434-0.961 0.738-0.226 0.305-0.34 0.633-0.34 0.984h-2.168c0-0.453 0.117-0.902 0.352-1.348s0.57-0.848 1.008-1.207c0.445-0.367 0.977-0.656 1.594-0.867 0.625-0.219 1.32-0.328 2.086-0.328 0.922 0 1.734 0.156 2.437 0.469 0.711 0.313 1.266 0.785 1.664 1.418 0.406 0.625 0.609 1.41 0.609 2.355v5.906c0 0.422 0.035 0.871 0.106 1.348 0.078 0.477 0.191 0.887 0.34 1.23v0.188h-2.262c-0.109-0.25-0.195-0.582-0.258-0.996-0.062-0.422-0.094-0.813-0.094-1.172zM71.916 16.313l0.024 1.523h-2.191c-0.617 0-1.168 0.051-1.652 0.152-0.484 0.094-0.891 0.238-1.219 0.434s-0.578 0.441-0.75 0.738c-0.172 0.289-0.258 0.629-0.258 1.019 0 0.399 0.090 0.762 0.27 1.090s0.449 0.59 0.809 0.785c0.367 0.188 0.816 0.281 1.348 0.281 0.664 0 1.25-0.141 1.758-0.422s0.91-0.625 1.207-1.031c0.305-0.406 0.469-0.801 0.492-1.184l0.926 1.043c-0.055 0.328-0.203 0.691-0.445 1.090s-0.567 0.781-0.973 1.148c-0.398 0.359-0.875 0.66-1.43 0.902-0.547 0.234-1.164 0.352-1.852 0.352-0.859 0-1.613-0.168-2.262-0.504-0.641-0.336-1.141-0.785-1.5-1.348-0.351-0.57-0.527-1.207-0.527-1.91 0-0.68 0.133-1.277 0.398-1.793 0.266-0.523 0.648-0.957 1.148-1.301 0.5-0.352 1.102-0.617 1.805-0.797s1.488-0.27 2.356-0.27h2.519zM83.153 22.453c0.516 0 0.992-0.106 1.43-0.316s0.797-0.5 1.078-0.867c0.281-0.375 0.441-0.801 0.481-1.277h2.062c-0.039 0.75-0.293 1.449-0.762 2.098-0.461 0.641-1.066 1.16-1.816 1.559-0.75 0.391-1.574 0.586-2.473 0.586-0.953 0-1.785-0.168-2.496-0.504-0.703-0.336-1.289-0.797-1.758-1.383-0.461-0.586-0.809-1.258-1.043-2.016-0.227-0.766-0.34-1.574-0.34-2.426v-0.492c0-0.852 0.113-1.656 0.34-2.414 0.234-0.766 0.582-1.441 1.043-2.027 0.469-0.586 1.055-1.047 1.758-1.383 0.711-0.336 1.543-0.504 2.496-0.504 0.992 0 1.859 0.203 2.602 0.609 0.742 0.398 1.324 0.945 1.746 1.641 0.43 0.688 0.664 1.469 0.703 2.344h-2.062c-0.039-0.523-0.188-0.996-0.445-1.418-0.25-0.422-0.594-0.758-1.031-1.008-0.43-0.258-0.934-0.387-1.512-0.387-0.664 0-1.223 0.133-1.676 0.398-0.445 0.258-0.801 0.609-1.066 1.055-0.258 0.438-0.445 0.926-0.562 1.465-0.109 0.531-0.164 1.074-0.164 1.629v0.492c0 0.555 0.055 1.102 0.164 1.641s0.293 1.027 0.551 1.465c0.266 0.437 0.621 0.789 1.066 1.055 0.453 0.258 1.016 0.387 1.687 0.387zM96.676 22.453c0.516 0 0.992-0.106 1.43-0.316s0.797-0.5 1.078-0.867c0.281-0.375 0.441-0.801 0.48-1.277h2.063c-0.039 0.75-0.293 1.449-0.762 2.098-0.461 0.641-1.066 1.16-1.816 1.559-0.75 0.391-1.574 0.586-2.473 0.586-0.953 0-1.785-0.168-2.496-0.504-0.703-0.336-1.289-0.797-1.758-1.383-0.461-0.586-0.809-1.258-1.043-2.016-0.226-0.766-0.34-1.574-0.34-2.426v-0.492c0-0.852 0.113-1.656 0.34-2.414 0.234-0.766 0.582-1.441 1.043-2.027 0.469-0.586 1.055-1.047 1.758-1.383 0.711-0.336 1.543-0.504 2.496-0.504 0.992 0 1.859 0.203 2.602 0.609 0.742 0.398 1.324 0.945 1.746 1.641 0.43 0.688 0.664 1.469 0.703 2.344h-2.063c-0.039-0.523-0.187-0.996-0.445-1.418-0.25-0.422-0.594-0.758-1.031-1.008-0.43-0.258-0.934-0.387-1.512-0.387-0.664 0-1.223 0.133-1.676 0.398-0.445 0.258-0.801 0.609-1.066 1.055-0.258 0.438-0.445 0.926-0.563 1.465-0.109 0.531-0.164 1.074-0.164 1.629v0.492c0 0.555 0.055 1.102 0.164 1.641s0.293 1.027 0.551 1.465c0.266 0.437 0.621 0.789 1.066 1.055 0.453 0.258 1.016 0.387 1.688 0.387zM110.386 24.234c-0.883 0-1.684-0.148-2.402-0.445-0.711-0.305-1.324-0.73-1.84-1.277-0.508-0.547-0.898-1.195-1.172-1.945s-0.41-1.57-0.41-2.461v-0.492c0-1.031 0.152-1.949 0.457-2.754 0.305-0.813 0.719-1.5 1.242-2.063s1.117-0.988 1.781-1.277 1.352-0.434 2.062-0.434c0.906 0 1.688 0.156 2.344 0.469 0.664 0.313 1.207 0.75 1.629 1.313 0.422 0.555 0.734 1.211 0.937 1.969 0.203 0.75 0.305 1.57 0.305 2.461v0.973h-9.469v-1.77h7.301v-0.164c-0.031-0.563-0.148-1.109-0.352-1.641-0.195-0.531-0.508-0.969-0.938-1.313s-1.016-0.516-1.758-0.516c-0.492 0-0.945 0.105-1.359 0.316-0.414 0.203-0.77 0.508-1.066 0.914s-0.527 0.902-0.692 1.488c-0.164 0.586-0.246 1.262-0.246 2.027v0.492c0 0.602 0.082 1.168 0.246 1.699 0.172 0.524 0.418 0.984 0.738 1.383 0.328 0.398 0.723 0.711 1.184 0.937 0.469 0.227 1 0.34 1.594 0.34 0.766 0 1.414-0.156 1.945-0.469s0.996-0.73 1.395-1.254l1.312 1.043c-0.273 0.414-0.621 0.809-1.043 1.184s-0.941 0.68-1.558 0.914c-0.609 0.234-1.332 0.352-2.168 0.352zM120.979 13.758v15.117h-2.18v-17.555h1.992l0.188 2.438zM129.522 17.555v0.246c0 0.922-0.109 1.777-0.328 2.566-0.219 0.781-0.539 1.461-0.961 2.039-0.414 0.578-0.926 1.027-1.535 1.348s-1.309 0.48-2.098 0.48c-0.805 0-1.516-0.133-2.133-0.398s-1.141-0.652-1.57-1.16c-0.43-0.508-0.774-1.117-1.031-1.828-0.25-0.711-0.422-1.512-0.516-2.402v-1.313c0.094-0.938 0.27-1.777 0.527-2.52s0.598-1.375 1.020-1.898c0.43-0.531 0.949-0.934 1.559-1.207 0.609-0.281 1.312-0.422 2.109-0.422s1.504 0.156 2.121 0.469c0.617 0.305 1.137 0.742 1.559 1.313s0.738 1.254 0.949 2.051c0.219 0.789 0.328 1.668 0.328 2.637zM127.342 17.801v-0.246c0-0.633-0.066-1.227-0.199-1.781-0.133-0.563-0.34-1.055-0.621-1.477-0.274-0.43-0.625-0.766-1.055-1.008-0.43-0.25-0.941-0.375-1.535-0.375-0.547 0-1.023 0.094-1.43 0.281-0.398 0.188-0.738 0.441-1.020 0.762-0.281 0.313-0.512 0.672-0.691 1.078-0.172 0.398-0.301 0.813-0.387 1.242v3.035c0.156 0.547 0.375 1.063 0.656 1.547 0.281 0.477 0.656 0.863 1.125 1.16 0.469 0.289 1.059 0.434 1.77 0.434 0.586 0 1.090-0.121 1.512-0.363 0.43-0.25 0.781-0.59 1.055-1.019 0.281-0.43 0.488-0.922 0.621-1.477 0.133-0.563 0.199-1.16 0.199-1.793zM138.556 11.32v1.664h-6.856v-1.664h6.856zM134.021 8.238h2.168v12.621c0 0.43 0.066 0.754 0.199 0.973s0.305 0.363 0.516 0.434c0.211 0.070 0.437 0.105 0.68 0.105 0.18 0 0.367-0.016 0.563-0.047 0.203-0.039 0.355-0.070 0.457-0.094l0.012 1.77c-0.172 0.055-0.399 0.105-0.68 0.152-0.273 0.055-0.605 0.082-0.996 0.082-0.531 0-1.020-0.105-1.465-0.316s-0.801-0.563-1.066-1.055c-0.258-0.5-0.387-1.172-0.387-2.016v-12.609zM154.281 11.32v1.664h-6.855v-1.664h6.855zM149.745 8.238h2.168v12.621c0 0.43 0.066 0.754 0.199 0.973s0.305 0.363 0.516 0.434c0.211 0.070 0.438 0.105 0.68 0.105 0.18 0 0.367-0.016 0.562-0.047 0.203-0.039 0.356-0.070 0.457-0.094l0.012 1.77c-0.172 0.055-0.398 0.105-0.68 0.152-0.274 0.055-0.606 0.082-0.996 0.082-0.531 0-1.019-0.105-1.465-0.316s-0.801-0.563-1.066-1.055c-0.258-0.5-0.387-1.172-0.387-2.016v-12.609zM159.952 6v18h-2.168v-18h2.168zM159.436 17.18l-0.902-0.035c0.008-0.867 0.137-1.668 0.387-2.402 0.25-0.742 0.601-1.387 1.055-1.934s0.992-0.969 1.617-1.266c0.633-0.305 1.332-0.457 2.098-0.457 0.625 0 1.188 0.086 1.688 0.258 0.5 0.164 0.926 0.43 1.277 0.797 0.359 0.367 0.633 0.844 0.82 1.43 0.187 0.578 0.281 1.285 0.281 2.121v8.309h-2.18v-8.332c0-0.664-0.098-1.195-0.293-1.594-0.195-0.406-0.48-0.699-0.855-0.879-0.375-0.188-0.836-0.281-1.383-0.281-0.539 0-1.031 0.113-1.477 0.34-0.438 0.227-0.816 0.539-1.137 0.938-0.312 0.398-0.559 0.855-0.738 1.371-0.172 0.508-0.258 1.047-0.258 1.617zM177.224 24.234c-0.883 0-1.684-0.148-2.402-0.445-0.711-0.305-1.324-0.73-1.84-1.277-0.508-0.547-0.898-1.195-1.172-1.945s-0.41-1.57-0.41-2.461v-0.492c0-1.031 0.152-1.949 0.457-2.754 0.305-0.813 0.719-1.5 1.242-2.063s1.117-0.988 1.781-1.277c0.664-0.289 1.351-0.434 2.062-0.434 0.906 0 1.688 0.156 2.344 0.469 0.664 0.313 1.207 0.75 1.629 1.313 0.422 0.555 0.734 1.211 0.938 1.969 0.203 0.75 0.305 1.57 0.305 2.461v0.973h-9.469v-1.77h7.301v-0.164c-0.031-0.563-0.148-1.109-0.351-1.641-0.195-0.531-0.508-0.969-0.938-1.313s-1.016-0.516-1.758-0.516c-0.492 0-0.945 0.105-1.359 0.316-0.414 0.203-0.769 0.508-1.066 0.914s-0.527 0.902-0.691 1.488-0.246 1.262-0.246 2.027v0.492c0 0.602 0.082 1.168 0.246 1.699 0.172 0.524 0.418 0.984 0.738 1.383 0.328 0.398 0.723 0.711 1.183 0.937 0.469 0.227 1 0.34 1.594 0.34 0.766 0 1.414-0.156 1.945-0.469s0.996-0.73 1.394-1.254l1.313 1.043c-0.273 0.414-0.621 0.809-1.043 1.184s-0.941 0.68-1.559 0.914c-0.609 0.234-1.332 0.352-2.168 0.352zM197.871 11.32v1.664h-6.855v-1.664h6.855zM193.335 8.238h2.168v12.621c0 0.43 0.066 0.754 0.199 0.973s0.305 0.363 0.516 0.434c0.211 0.070 0.438 0.105 0.68 0.105 0.18 0 0.367-0.016 0.562-0.047 0.203-0.039 0.356-0.070 0.457-0.094l0.012 1.77c-0.172 0.055-0.398 0.105-0.68 0.152-0.274 0.055-0.606 0.082-0.996 0.082-0.531 0-1.019-0.105-1.465-0.316s-0.801-0.563-1.066-1.055c-0.258-0.5-0.387-1.172-0.387-2.016v-12.609zM206.636 24.234c-0.884 0-1.684-0.148-2.404-0.445-0.71-0.305-1.324-0.73-1.838-1.277-0.508-0.547-0.9-1.195-1.172-1.945-0.274-0.75-0.41-1.57-0.41-2.461v-0.492c0-1.031 0.152-1.949 0.456-2.754 0.304-0.813 0.718-1.5 1.242-2.063s1.118-0.988 1.782-1.277c0.664-0.289 1.352-0.434 2.062-0.434 0.906 0 1.688 0.156 2.344 0.469 0.664 0.313 1.206 0.75 1.628 1.313 0.422 0.555 0.736 1.211 0.938 1.969 0.204 0.75 0.304 1.57 0.304 2.461v0.973h-9.468v-1.77h7.3v-0.164c-0.030-0.563-0.148-1.109-0.35-1.641-0.196-0.531-0.508-0.969-0.938-1.313s-1.016-0.516-1.758-0.516c-0.492 0-0.946 0.105-1.36 0.316-0.414 0.203-0.768 0.508-1.066 0.914-0.296 0.406-0.528 0.902-0.692 1.488s-0.246 1.262-0.246 2.027v0.492c0 0.602 0.082 1.168 0.246 1.699 0.172 0.524 0.418 0.984 0.74 1.383 0.328 0.398 0.722 0.711 1.182 0.937 0.47 0.227 1 0.34 1.594 0.34 0.766 0 1.414-0.156 1.946-0.469s0.996-0.73 1.394-1.254l1.312 1.043c-0.272 0.414-0.62 0.809-1.042 1.184s-0.942 0.68-1.558 0.914c-0.61 0.234-1.332 0.352-2.168 0.352zM217.228 13.313v10.688h-2.168v-12.68h2.11l0.058 1.992zM221.19 11.25l-0.012 2.016c-0.18-0.039-0.352-0.063-0.516-0.070-0.156-0.016-0.336-0.023-0.54-0.023-0.5 0-0.94 0.078-1.324 0.234-0.382 0.156-0.706 0.375-0.972 0.656s-0.476 0.617-0.634 1.008c-0.148 0.383-0.246 0.805-0.292 1.266l-0.61 0.352c0-0.766 0.074-1.484 0.224-2.156 0.156-0.672 0.394-1.266 0.714-1.781 0.32-0.523 0.726-0.93 1.218-1.219 0.5-0.297 1.094-0.445 1.782-0.445 0.156 0 0.336 0.020 0.54 0.059 0.202 0.031 0.342 0.066 0.422 0.105zM226.31 13.84v10.16h-2.18v-12.68h2.062l0.118 2.52zM225.864 17.18l-1.008-0.035c0.008-0.867 0.122-1.668 0.34-2.402 0.218-0.742 0.542-1.387 0.972-1.934s0.966-0.969 1.606-1.266c0.64-0.305 1.382-0.457 2.226-0.457 0.594 0 1.142 0.086 1.642 0.258 0.5 0.164 0.932 0.426 1.3 0.785s0.652 0.82 0.856 1.383c0.202 0.563 0.304 1.242 0.304 2.039v8.449h-2.168v-8.344c0-0.664-0.114-1.195-0.34-1.594-0.218-0.398-0.53-0.688-0.938-0.867-0.406-0.188-0.882-0.281-1.428-0.281-0.642 0-1.176 0.113-1.606 0.34s-0.774 0.539-1.032 0.938c-0.258 0.398-0.444 0.855-0.562 1.371-0.11 0.508-0.164 1.047-0.164 1.617zM234.078 15.984l-1.452 0.445c0.008-0.695 0.12-1.363 0.34-2.004 0.226-0.641 0.55-1.211 0.972-1.711 0.43-0.5 0.958-0.895 1.582-1.184 0.626-0.297 1.34-0.445 2.144-0.445 0.68 0 1.282 0.090 1.806 0.27 0.53 0.18 0.976 0.457 1.336 0.832 0.366 0.367 0.644 0.84 0.832 1.418 0.186 0.578 0.28 1.266 0.28 2.063v8.332h-2.18v-8.355c0-0.711-0.112-1.262-0.338-1.652-0.22-0.398-0.532-0.676-0.938-0.832-0.398-0.164-0.876-0.246-1.43-0.246-0.476 0-0.898 0.082-1.266 0.246-0.366 0.164-0.676 0.391-0.926 0.68-0.25 0.281-0.44 0.605-0.574 0.973-0.124 0.367-0.188 0.758-0.188 1.172zM253.542 20.637c0-0.313-0.070-0.602-0.21-0.867-0.134-0.273-0.41-0.52-0.832-0.738-0.414-0.227-1.040-0.422-1.876-0.586-0.702-0.148-1.34-0.324-1.91-0.527-0.562-0.203-1.042-0.449-1.44-0.738-0.392-0.289-0.692-0.629-0.904-1.020-0.21-0.391-0.316-0.848-0.316-1.371 0-0.5 0.11-0.973 0.328-1.418 0.228-0.445 0.544-0.84 0.95-1.184 0.414-0.344 0.91-0.613 1.488-0.809s1.222-0.293 1.934-0.293c1.016 0 1.882 0.18 2.602 0.539 0.718 0.359 1.268 0.84 1.652 1.441 0.382 0.594 0.574 1.254 0.574 1.98h-2.168c0-0.352-0.106-0.691-0.316-1.020-0.204-0.336-0.504-0.613-0.904-0.832-0.39-0.219-0.87-0.328-1.44-0.328-0.602 0-1.090 0.094-1.466 0.281-0.366 0.18-0.636 0.41-0.808 0.691-0.164 0.281-0.246 0.578-0.246 0.891 0 0.234 0.040 0.445 0.118 0.633 0.086 0.18 0.234 0.348 0.444 0.504 0.212 0.148 0.508 0.289 0.892 0.422 0.382 0.133 0.87 0.266 1.464 0.398 1.040 0.234 1.894 0.516 2.566 0.844s1.172 0.73 1.5 1.207c0.328 0.477 0.492 1.055 0.492 1.734 0 0.555-0.116 1.063-0.35 1.523-0.228 0.461-0.56 0.859-0.998 1.195-0.428 0.328-0.944 0.586-1.546 0.773-0.594 0.18-1.262 0.27-2.004 0.27-1.118 0-2.062-0.199-2.836-0.598s-1.36-0.914-1.758-1.547-0.598-1.301-0.598-2.004h2.18c0.032 0.594 0.204 1.066 0.516 1.418 0.312 0.344 0.696 0.59 1.148 0.738 0.454 0.141 0.902 0.211 1.348 0.211 0.594 0 1.090-0.078 1.488-0.234 0.406-0.156 0.716-0.371 0.926-0.645 0.212-0.273 0.316-0.586 0.316-0.937zM273.908 21.832v-6.527c0-0.5-0.102-0.934-0.304-1.301-0.196-0.375-0.492-0.664-0.892-0.867-0.398-0.203-0.89-0.305-1.476-0.305-0.546 0-1.028 0.094-1.442 0.281-0.406 0.188-0.726 0.434-0.96 0.738-0.226 0.305-0.34 0.633-0.34 0.984h-2.168c0-0.453 0.118-0.902 0.352-1.348s0.57-0.848 1.008-1.207c0.444-0.367 0.976-0.656 1.594-0.867 0.624-0.219 1.32-0.328 2.086-0.328 0.92 0 1.734 0.156 2.436 0.469 0.712 0.313 1.266 0.785 1.664 1.418 0.406 0.625 0.61 1.41 0.61 2.355v5.906c0 0.422 0.036 0.871 0.106 1.348 0.078 0.477 0.19 0.887 0.34 1.23v0.188h-2.262c-0.11-0.25-0.196-0.582-0.258-0.996-0.062-0.422-0.094-0.813-0.094-1.172zM274.282 16.313l0.024 1.523h-2.19c-0.618 0-1.168 0.051-1.654 0.152-0.484 0.094-0.89 0.238-1.218 0.434s-0.578 0.441-0.75 0.738c-0.172 0.289-0.258 0.629-0.258 1.019 0 0.399 0.090 0.762 0.27 1.090s0.448 0.59 0.808 0.785c0.368 0.188 0.816 0.281 1.348 0.281 0.664 0 1.25-0.141 1.758-0.422s0.91-0.625 1.206-1.031c0.306-0.406 0.47-0.801 0.492-1.184l0.926 1.043c-0.054 0.328-0.202 0.691-0.444 1.090s-0.568 0.781-0.974 1.148c-0.398 0.359-0.874 0.66-1.428 0.902-0.548 0.234-1.166 0.352-1.852 0.352-0.86 0-1.614-0.168-2.262-0.504-0.64-0.336-1.14-0.785-1.5-1.348-0.352-0.57-0.528-1.207-0.528-1.91 0-0.68 0.134-1.277 0.398-1.793 0.266-0.523 0.65-0.957 1.15-1.301 0.5-0.352 1.1-0.617 1.804-0.797s1.488-0.27 2.356-0.27h2.518zM282.614 14.027v9.973h-2.168v-12.68h2.050l0.118 2.707zM282.098 17.18l-0.902-0.035c0.008-0.867 0.136-1.668 0.386-2.402 0.25-0.742 0.602-1.387 1.056-1.934 0.452-0.547 0.992-0.969 1.616-1.266 0.634-0.305 1.332-0.457 2.098-0.457 0.626 0 1.188 0.086 1.688 0.258 0.5 0.164 0.926 0.43 1.278 0.797 0.358 0.367 0.632 0.844 0.82 1.43 0.186 0.578 0.28 1.285 0.28 2.121v8.309h-2.178v-8.332c0-0.664-0.098-1.195-0.294-1.594-0.196-0.406-0.48-0.699-0.856-0.879-0.374-0.188-0.836-0.281-1.382-0.281-0.54 0-1.032 0.113-1.476 0.34-0.438 0.227-0.818 0.539-1.138 0.938-0.312 0.398-0.558 0.855-0.738 1.371-0.172 0.508-0.258 1.047-0.258 1.617zM302.664 21.539v-15.539h2.18v18h-1.992l-0.188-2.461zM294.132 17.801v-0.246c0-0.969 0.118-1.848 0.352-2.637 0.242-0.797 0.582-1.48 1.020-2.051 0.446-0.57 0.972-1.008 1.582-1.313 0.616-0.313 1.304-0.469 2.062-0.469 0.798 0 1.492 0.141 2.086 0.422 0.602 0.273 1.11 0.676 1.524 1.207 0.422 0.523 0.754 1.156 0.996 1.898s0.41 1.582 0.504 2.52v1.078c-0.086 0.93-0.254 1.766-0.504 2.508-0.242 0.742-0.574 1.375-0.996 1.898-0.414 0.523-0.922 0.926-1.524 1.207-0.602 0.273-1.304 0.41-2.11 0.41-0.742 0-1.422-0.16-2.038-0.48-0.61-0.32-1.136-0.77-1.582-1.348-0.438-0.578-0.778-1.258-1.020-2.039-0.234-0.789-0.352-1.645-0.352-2.566zM296.312 17.555v0.246c0 0.633 0.062 1.227 0.188 1.781 0.132 0.555 0.336 1.043 0.61 1.465 0.272 0.422 0.62 0.754 1.042 0.996 0.422 0.234 0.926 0.352 1.512 0.352 0.718 0 1.308-0.152 1.77-0.457 0.468-0.305 0.844-0.707 1.124-1.207 0.282-0.5 0.5-1.043 0.656-1.629v-2.824c-0.094-0.43-0.23-0.844-0.41-1.242-0.172-0.406-0.398-0.766-0.68-1.078-0.272-0.32-0.612-0.574-1.018-0.762-0.4-0.188-0.872-0.281-1.418-0.281-0.594 0-1.106 0.125-1.536 0.375-0.422 0.242-0.77 0.578-1.042 1.008-0.274 0.422-0.478 0.914-0.61 1.477-0.126 0.555-0.188 1.148-0.188 1.781zM321.166 22.453c0.516 0 0.992-0.106 1.43-0.316s0.796-0.5 1.078-0.867c0.28-0.375 0.442-0.801 0.48-1.277h2.062c-0.038 0.75-0.292 1.449-0.762 2.098-0.46 0.641-1.066 1.16-1.816 1.559-0.75 0.391-1.574 0.586-2.472 0.586-0.954 0-1.786-0.168-2.496-0.504-0.704-0.336-1.29-0.797-1.758-1.383-0.46-0.586-0.808-1.258-1.042-2.016-0.228-0.766-0.34-1.574-0.34-2.426v-0.492c0-0.852 0.112-1.656 0.34-2.414 0.234-0.766 0.582-1.441 1.042-2.027 0.468-0.586 1.054-1.047 1.758-1.383 0.71-0.336 1.542-0.504 2.496-0.504 0.992 0 1.86 0.203 2.602 0.609 0.742 0.398 1.324 0.945 1.746 1.641 0.43 0.688 0.664 1.469 0.702 2.344h-2.062c-0.038-0.523-0.188-0.996-0.446-1.418-0.25-0.422-0.592-0.758-1.030-1.008-0.43-0.258-0.934-0.387-1.512-0.387-0.664 0-1.222 0.133-1.676 0.398-0.446 0.258-0.8 0.609-1.066 1.055-0.258 0.438-0.446 0.926-0.562 1.465-0.11 0.531-0.164 1.074-0.164 1.629v0.492c0 0.555 0.054 1.102 0.164 1.641 0.108 0.539 0.292 1.027 0.55 1.465 0.266 0.437 0.622 0.789 1.066 1.055 0.454 0.258 1.016 0.387 1.688 0.387zM329.040 17.801v-0.27c0-0.914 0.132-1.762 0.398-2.543 0.266-0.789 0.648-1.473 1.148-2.051 0.5-0.586 1.106-1.039 1.818-1.359 0.71-0.328 1.508-0.492 2.39-0.492 0.89 0 1.692 0.164 2.402 0.492 0.72 0.32 1.328 0.773 1.828 1.359 0.508 0.578 0.894 1.262 1.16 2.051 0.266 0.781 0.398 1.629 0.398 2.543v0.27c0 0.914-0.132 1.762-0.398 2.543s-0.652 1.465-1.16 2.051c-0.5 0.578-1.106 1.031-1.816 1.359-0.704 0.32-1.5 0.48-2.39 0.48-0.892 0-1.692-0.16-2.402-0.48-0.712-0.328-1.322-0.781-1.83-1.359-0.5-0.586-0.882-1.27-1.148-2.051s-0.398-1.629-0.398-2.543zM331.208 17.531v0.27c0 0.633 0.074 1.23 0.222 1.793 0.15 0.555 0.372 1.047 0.668 1.477 0.306 0.43 0.684 0.769 1.138 1.019 0.452 0.242 0.98 0.363 1.582 0.363 0.594 0 1.112-0.121 1.558-0.363 0.454-0.25 0.828-0.59 1.124-1.019 0.298-0.43 0.52-0.922 0.668-1.477 0.158-0.563 0.236-1.16 0.236-1.793v-0.27c0-0.625-0.078-1.215-0.236-1.77-0.148-0.563-0.374-1.059-0.678-1.488-0.298-0.438-0.672-0.781-1.126-1.031-0.446-0.25-0.968-0.375-1.57-0.375-0.594 0-1.118 0.125-1.57 0.375-0.446 0.25-0.82 0.594-1.126 1.031-0.296 0.43-0.518 0.926-0.668 1.488-0.148 0.555-0.222 1.145-0.222 1.77zM346.43 14.027v9.973h-2.168v-12.68h2.050l0.118 2.707zM345.914 17.18l-0.902-0.035c0.008-0.867 0.136-1.668 0.386-2.402 0.25-0.742 0.602-1.387 1.056-1.934 0.452-0.547 0.992-0.969 1.616-1.266 0.634-0.305 1.332-0.457 2.098-0.457 0.624 0 1.188 0.086 1.688 0.258 0.5 0.164 0.926 0.43 1.276 0.797 0.36 0.367 0.634 0.844 0.822 1.43 0.186 0.578 0.28 1.285 0.28 2.121v8.309h-2.18v-8.332c0-0.664-0.096-1.195-0.292-1.594-0.196-0.406-0.48-0.699-0.856-0.879-0.374-0.188-0.836-0.281-1.382-0.281-0.54 0-1.032 0.113-1.478 0.34-0.436 0.227-0.816 0.539-1.136 0.938-0.312 0.398-0.558 0.855-0.738 1.371-0.172 0.508-0.258 1.047-0.258 1.617zM366.48 21.539v-15.539h2.18v18h-1.992l-0.188-2.461zM357.948 17.801v-0.246c0-0.969 0.118-1.848 0.352-2.637 0.242-0.797 0.582-1.48 1.020-2.051 0.444-0.57 0.972-1.008 1.582-1.313 0.616-0.313 1.304-0.469 2.062-0.469 0.796 0 1.492 0.141 2.086 0.422 0.602 0.273 1.11 0.676 1.524 1.207 0.422 0.523 0.754 1.156 0.996 1.898s0.41 1.582 0.504 2.52v1.078c-0.086 0.93-0.254 1.766-0.504 2.508-0.242 0.742-0.574 1.375-0.996 1.898-0.414 0.523-0.922 0.926-1.524 1.207-0.602 0.273-1.304 0.41-2.11 0.41-0.742 0-1.422-0.16-2.038-0.48-0.61-0.32-1.138-0.77-1.582-1.348-0.438-0.578-0.778-1.258-1.020-2.039-0.234-0.789-0.352-1.645-0.352-2.566zM360.128 17.555v0.246c0 0.633 0.062 1.227 0.188 1.781 0.132 0.555 0.336 1.043 0.608 1.465 0.274 0.422 0.622 0.754 1.044 0.996 0.422 0.234 0.926 0.352 1.512 0.352 0.718 0 1.308-0.152 1.77-0.457 0.468-0.305 0.842-0.707 1.124-1.207s0.5-1.043 0.656-1.629v-2.824c-0.094-0.43-0.23-0.844-0.41-1.242-0.172-0.406-0.398-0.766-0.68-1.078-0.272-0.32-0.612-0.574-1.020-0.762-0.398-0.188-0.87-0.281-1.418-0.281-0.592 0-1.104 0.125-1.534 0.375-0.422 0.242-0.77 0.578-1.044 1.008-0.272 0.422-0.476 0.914-0.608 1.477-0.126 0.555-0.188 1.148-0.188 1.781zM375.35 11.32v12.68h-2.18v-12.68h2.18zM373.006 7.957c0-0.352 0.106-0.648 0.316-0.891 0.22-0.242 0.54-0.363 0.962-0.363 0.414 0 0.73 0.121 0.948 0.363 0.228 0.242 0.34 0.539 0.34 0.891 0 0.336-0.112 0.625-0.34 0.867-0.218 0.234-0.534 0.352-0.948 0.352-0.422 0-0.742-0.117-0.962-0.352-0.21-0.242-0.316-0.531-0.316-0.867zM385.098 11.32v1.664h-6.854v-1.664h6.854zM380.564 8.238h2.168v12.621c0 0.43 0.066 0.754 0.198 0.973 0.134 0.219 0.306 0.363 0.516 0.434 0.212 0.070 0.438 0.105 0.68 0.105 0.18 0 0.368-0.016 0.562-0.047 0.204-0.039 0.356-0.070 0.458-0.094l0.012 1.77c-0.172 0.055-0.4 0.105-0.68 0.152-0.274 0.055-0.606 0.082-0.996 0.082-0.532 0-1.020-0.105-1.466-0.316-0.444-0.211-0.8-0.563-1.066-1.055-0.258-0.5-0.386-1.172-0.386-2.016v-12.609zM390.958 11.32v12.68h-2.18v-12.68h2.18zM388.614 7.957c0-0.352 0.104-0.648 0.316-0.891 0.218-0.242 0.538-0.363 0.96-0.363 0.414 0 0.732 0.121 0.95 0.363 0.226 0.242 0.34 0.539 0.34 0.891 0 0.336-0.114 0.625-0.34 0.867-0.218 0.234-0.536 0.352-0.95 0.352-0.422 0-0.742-0.117-0.96-0.352-0.212-0.242-0.316-0.531-0.316-0.867zM394.824 17.801v-0.27c0-0.914 0.132-1.762 0.398-2.543 0.266-0.789 0.648-1.473 1.148-2.051 0.5-0.586 1.106-1.039 1.816-1.359 0.712-0.328 1.508-0.492 2.392-0.492 0.89 0 1.69 0.164 2.402 0.492 0.718 0.32 1.328 0.773 1.828 1.359 0.508 0.578 0.894 1.262 1.16 2.051 0.266 0.781 0.398 1.629 0.398 2.543v0.27c0 0.914-0.132 1.762-0.398 2.543s-0.652 1.465-1.16 2.051c-0.5 0.578-1.106 1.031-1.816 1.359-0.704 0.32-1.5 0.48-2.392 0.48-0.89 0-1.69-0.16-2.402-0.48-0.71-0.328-1.32-0.781-1.828-1.359-0.5-0.586-0.882-1.27-1.148-2.051s-0.398-1.629-0.398-2.543zM396.992 17.531v0.27c0 0.633 0.074 1.23 0.222 1.793 0.148 0.555 0.372 1.047 0.668 1.477 0.304 0.43 0.684 0.769 1.136 1.019 0.454 0.242 0.982 0.363 1.582 0.363 0.594 0 1.114-0.121 1.56-0.363 0.452-0.25 0.828-0.59 1.124-1.019 0.298-0.43 0.52-0.922 0.668-1.477 0.156-0.563 0.234-1.16 0.234-1.793v-0.27c0-0.625-0.078-1.215-0.234-1.77-0.148-0.563-0.374-1.059-0.68-1.488-0.296-0.438-0.672-0.781-1.124-1.031-0.446-0.25-0.97-0.375-1.57-0.375-0.594 0-1.118 0.125-1.57 0.375-0.446 0.25-0.822 0.594-1.126 1.031-0.296 0.43-0.52 0.926-0.668 1.488-0.148 0.555-0.222 1.145-0.222 1.77zM412.214 14.027v9.973h-2.168v-12.68h2.050l0.118 2.707zM411.698 17.18l-0.902-0.035c0.006-0.867 0.136-1.668 0.386-2.402 0.25-0.742 0.602-1.387 1.054-1.934 0.454-0.547 0.992-0.969 1.618-1.266 0.632-0.305 1.332-0.457 2.098-0.457 0.624 0 1.186 0.086 1.686 0.258 0.5 0.164 0.926 0.43 1.278 0.797 0.36 0.367 0.634 0.844 0.82 1.43 0.188 0.578 0.282 1.285 0.282 2.121v8.309h-2.18v-8.332c0-0.664-0.098-1.195-0.292-1.594-0.196-0.406-0.482-0.699-0.856-0.879-0.376-0.188-0.836-0.281-1.384-0.281-0.538 0-1.030 0.113-1.476 0.34-0.438 0.227-0.816 0.539-1.136 0.938-0.312 0.398-0.558 0.855-0.738 1.371-0.172 0.508-0.258 1.047-0.258 1.617zM431.654 20.637c0-0.313-0.070-0.602-0.212-0.867-0.132-0.273-0.41-0.52-0.832-0.738-0.414-0.227-1.038-0.422-1.874-0.586-0.704-0.148-1.34-0.324-1.91-0.527-0.564-0.203-1.044-0.449-1.442-0.738-0.39-0.289-0.692-0.629-0.902-1.020-0.212-0.391-0.316-0.848-0.316-1.371 0-0.5 0.108-0.973 0.328-1.418 0.226-0.445 0.542-0.84 0.948-1.184 0.414-0.344 0.91-0.613 1.488-0.809 0.58-0.195 1.224-0.293 1.934-0.293 1.016 0 1.884 0.18 2.602 0.539s1.27 0.84 1.652 1.441c0.384 0.594 0.574 1.254 0.574 1.98h-2.168c0-0.352-0.104-0.691-0.316-1.020-0.202-0.336-0.504-0.613-0.902-0.832-0.39-0.219-0.872-0.328-1.442-0.328-0.602 0-1.090 0.094-1.464 0.281-0.368 0.18-0.638 0.41-0.808 0.691-0.164 0.281-0.246 0.578-0.246 0.891 0 0.234 0.038 0.445 0.116 0.633 0.086 0.18 0.234 0.348 0.446 0.504 0.21 0.148 0.508 0.289 0.89 0.422s0.872 0.266 1.464 0.398c1.040 0.234 1.896 0.516 2.568 0.844s1.172 0.73 1.5 1.207c0.328 0.477 0.492 1.055 0.492 1.734 0 0.555-0.118 1.063-0.352 1.523-0.226 0.461-0.558 0.859-0.996 1.195-0.43 0.328-0.946 0.586-1.546 0.773-0.594 0.18-1.262 0.27-2.004 0.27-1.118 0-2.064-0.199-2.836-0.598-0.774-0.399-1.36-0.914-1.758-1.547-0.4-0.633-0.598-1.301-0.598-2.004h2.18c0.030 0.594 0.202 1.066 0.516 1.418 0.312 0.344 0.694 0.59 1.148 0.738 0.452 0.141 0.902 0.211 1.348 0.211 0.592 0 1.088-0.078 1.488-0.234 0.406-0.156 0.714-0.371 0.926-0.645 0.21-0.273 0.316-0.586 0.316-0.937zM443.968 17.801v-0.27c0-0.914 0.132-1.762 0.398-2.543 0.266-0.789 0.648-1.473 1.148-2.051 0.5-0.586 1.106-1.039 1.818-1.359 0.71-0.328 1.508-0.492 2.39-0.492 0.89 0 1.692 0.164 2.402 0.492 0.72 0.32 1.328 0.773 1.828 1.359 0.508 0.578 0.896 1.262 1.16 2.051 0.266 0.781 0.4 1.629 0.4 2.543v0.27c0 0.914-0.134 1.762-0.4 2.543-0.264 0.781-0.652 1.465-1.16 2.051-0.5 0.578-1.104 1.031-1.816 1.359-0.704 0.32-1.5 0.48-2.39 0.48-0.892 0-1.692-0.16-2.402-0.48-0.712-0.328-1.322-0.781-1.83-1.359-0.5-0.586-0.882-1.27-1.148-2.051s-0.398-1.629-0.398-2.543zM446.136 17.531v0.27c0 0.633 0.074 1.23 0.222 1.793 0.15 0.555 0.372 1.047 0.668 1.477 0.306 0.43 0.684 0.769 1.138 1.019 0.452 0.242 0.98 0.363 1.582 0.363 0.594 0 1.112-0.121 1.558-0.363 0.454-0.25 0.828-0.59 1.126-1.019 0.296-0.43 0.518-0.922 0.668-1.477 0.156-0.563 0.234-1.16 0.234-1.793v-0.27c0-0.625-0.078-1.215-0.234-1.77-0.15-0.563-0.376-1.059-0.68-1.488-0.298-0.438-0.672-0.781-1.126-1.031-0.444-0.25-0.968-0.375-1.57-0.375-0.594 0-1.118 0.125-1.57 0.375-0.446 0.25-0.82 0.594-1.126 1.031-0.296 0.43-0.518 0.926-0.668 1.488-0.148 0.555-0.222 1.145-0.222 1.77zM462.424 24h-2.168v-14.016c0-0.914 0.164-1.684 0.492-2.309 0.336-0.633 0.816-1.109 1.442-1.43 0.624-0.328 1.368-0.492 2.226-0.492 0.25 0 0.5 0.016 0.75 0.047 0.258 0.031 0.508 0.078 0.75 0.141l-0.116 1.77c-0.164-0.039-0.352-0.066-0.564-0.082-0.202-0.016-0.406-0.023-0.608-0.023-0.462 0-0.86 0.094-1.196 0.281-0.328 0.18-0.578 0.445-0.75 0.797s-0.258 0.785-0.258 1.301v14.016zM465.12 11.32v1.664h-6.868v-1.664h6.868zM480.716 11.32v1.664h-6.856v-1.664h6.856zM476.18 8.238h2.168v12.621c0 0.43 0.066 0.754 0.2 0.973 0.132 0.219 0.304 0.363 0.514 0.434 0.212 0.070 0.438 0.105 0.68 0.105 0.18 0 0.368-0.016 0.564-0.047 0.202-0.039 0.354-0.070 0.456-0.094l0.012 1.77c-0.172 0.055-0.398 0.105-0.68 0.152-0.274 0.055-0.606 0.082-0.996 0.082-0.532 0-1.020-0.105-1.464-0.316-0.446-0.211-0.802-0.563-1.068-1.055-0.256-0.5-0.386-1.172-0.386-2.016v-12.609zM486.386 6v18h-2.168v-18h2.168zM485.87 17.18l-0.902-0.035c0.008-0.867 0.138-1.668 0.388-2.402 0.25-0.742 0.6-1.387 1.054-1.934 0.452-0.547 0.992-0.969 1.616-1.266 0.634-0.305 1.332-0.457 2.098-0.457 0.626 0 1.188 0.086 1.688 0.258 0.5 0.164 0.926 0.43 1.278 0.797 0.358 0.367 0.632 0.844 0.82 1.43 0.188 0.578 0.28 1.285 0.28 2.121v8.309h-2.178v-8.332c0-0.664-0.098-1.195-0.294-1.594-0.196-0.406-0.48-0.699-0.856-0.879-0.374-0.188-0.836-0.281-1.382-0.281-0.54 0-1.032 0.113-1.476 0.34-0.438 0.227-0.816 0.539-1.138 0.938-0.312 0.398-0.558 0.855-0.738 1.371-0.172 0.508-0.258 1.047-0.258 1.617zM503.658 24.234c-0.882 0-1.682-0.148-2.402-0.445-0.71-0.305-1.324-0.73-1.84-1.277-0.508-0.547-0.898-1.195-1.172-1.945-0.272-0.75-0.41-1.57-0.41-2.461v-0.492c0-1.031 0.152-1.949 0.458-2.754 0.304-0.813 0.718-1.5 1.242-2.063s1.116-0.988 1.782-1.277c0.664-0.289 1.35-0.434 2.062-0.434 0.906 0 1.688 0.156 2.344 0.469 0.664 0.313 1.206 0.75 1.628 1.313 0.422 0.555 0.734 1.211 0.938 1.969 0.202 0.75 0.304 1.57 0.304 2.461v0.973h-9.468v-1.77h7.3v-0.164c-0.030-0.563-0.148-1.109-0.352-1.641-0.194-0.531-0.506-0.969-0.936-1.313s-1.016-0.516-1.758-0.516c-0.492 0-0.946 0.105-1.36 0.316-0.414 0.203-0.77 0.508-1.066 0.914-0.298 0.406-0.528 0.902-0.692 1.488s-0.246 1.262-0.246 2.027v0.492c0 0.602 0.082 1.168 0.246 1.699 0.172 0.524 0.418 0.984 0.738 1.383 0.328 0.398 0.724 0.711 1.184 0.937 0.468 0.227 1 0.34 1.594 0.34 0.766 0 1.414-0.156 1.946-0.469 0.53-0.312 0.996-0.73 1.394-1.254l1.312 1.043c-0.274 0.414-0.62 0.809-1.042 1.184s-0.942 0.68-1.56 0.914c-0.608 0.234-1.332 0.352-2.168 0.352z"></path>
<path fill="#4d5ae5" style="fill: var(--color3, #4d5ae5)" d="M525.618 17.309h-4.558v-1.84h4.558c0.882 0 1.598-0.141 2.144-0.422 0.548-0.281 0.946-0.672 1.196-1.172 0.258-0.5 0.386-1.070 0.386-1.711 0-0.586-0.128-1.137-0.386-1.652-0.25-0.516-0.648-0.93-1.196-1.242-0.546-0.32-1.262-0.48-2.144-0.48h-4.032v15.211h-2.262v-17.063h6.294c1.288 0 2.378 0.223 3.27 0.668 0.89 0.445 1.566 1.063 2.026 1.852 0.462 0.781 0.692 1.676 0.692 2.684 0 1.094-0.23 2.027-0.692 2.801-0.46 0.773-1.136 1.363-2.026 1.77-0.892 0.398-1.982 0.598-3.27 0.598zM537.266 13.313v10.688h-2.168v-12.68h2.108l0.060 1.992zM541.226 11.25l-0.012 2.016c-0.18-0.039-0.352-0.063-0.516-0.070-0.156-0.016-0.336-0.023-0.538-0.023-0.5 0-0.942 0.078-1.324 0.234-0.384 0.156-0.708 0.375-0.974 0.656-0.264 0.281-0.476 0.617-0.632 1.008-0.148 0.383-0.246 0.805-0.292 1.266l-0.61 0.352c0-0.766 0.074-1.484 0.222-2.156 0.156-0.672 0.396-1.266 0.716-1.781 0.32-0.523 0.726-0.93 1.218-1.219 0.5-0.297 1.094-0.445 1.782-0.445 0.156 0 0.336 0.020 0.538 0.059 0.204 0.031 0.344 0.066 0.422 0.105zM546.546 11.32v12.68h-2.18v-12.68h2.18zM544.202 7.957c0-0.352 0.106-0.648 0.316-0.891 0.22-0.242 0.54-0.363 0.962-0.363 0.414 0 0.73 0.121 0.948 0.363 0.226 0.242 0.34 0.539 0.34 0.891 0 0.336-0.114 0.625-0.34 0.867-0.218 0.234-0.534 0.352-0.948 0.352-0.422 0-0.742-0.117-0.962-0.352-0.21-0.242-0.316-0.531-0.316-0.867zM554.842 22.043l3.468-10.723h2.216l-4.56 12.68h-1.452l0.328-1.957zM551.948 11.32l3.574 10.781 0.246 1.898h-1.454l-4.594-12.68h2.228zM570.86 21.832v-6.527c0-0.5-0.102-0.934-0.304-1.301-0.196-0.375-0.492-0.664-0.892-0.867-0.398-0.203-0.89-0.305-1.476-0.305-0.546 0-1.028 0.094-1.442 0.281-0.406 0.188-0.726 0.434-0.96 0.738-0.226 0.305-0.34 0.633-0.34 0.984h-2.168c0-0.453 0.118-0.902 0.352-1.348s0.57-0.848 1.008-1.207c0.444-0.367 0.976-0.656 1.594-0.867 0.624-0.219 1.32-0.328 2.086-0.328 0.922 0 1.734 0.156 2.436 0.469 0.712 0.313 1.266 0.785 1.664 1.418 0.408 0.625 0.61 1.41 0.61 2.355v5.906c0 0.422 0.036 0.871 0.106 1.348 0.078 0.477 0.192 0.887 0.34 1.23v0.188h-2.262c-0.11-0.25-0.196-0.582-0.258-0.996-0.062-0.422-0.094-0.813-0.094-1.172zM571.236 16.313l0.022 1.523h-2.19c-0.618 0-1.168 0.051-1.654 0.152-0.484 0.094-0.89 0.238-1.218 0.434s-0.578 0.441-0.75 0.738c-0.172 0.289-0.258 0.629-0.258 1.019 0 0.399 0.090 0.762 0.27 1.090s0.45 0.59 0.808 0.785c0.368 0.188 0.816 0.281 1.348 0.281 0.664 0 1.25-0.141 1.758-0.422s0.91-0.625 1.206-1.031c0.306-0.406 0.47-0.801 0.494-1.184l0.924 1.043c-0.054 0.328-0.202 0.691-0.444 1.090s-0.566 0.781-0.974 1.148c-0.398 0.359-0.874 0.66-1.428 0.902-0.548 0.234-1.164 0.352-1.852 0.352-0.86 0-1.614-0.168-2.262-0.504-0.64-0.336-1.14-0.785-1.5-1.348-0.352-0.57-0.528-1.207-0.528-1.91 0-0.68 0.134-1.277 0.4-1.793 0.264-0.523 0.648-0.957 1.148-1.301 0.5-0.352 1.102-0.617 1.804-0.797 0.704-0.18 1.488-0.27 2.356-0.27h2.52zM582.472 22.453c0.516 0 0.992-0.106 1.43-0.316s0.798-0.5 1.078-0.867c0.282-0.375 0.442-0.801 0.48-1.277h2.064c-0.040 0.75-0.294 1.449-0.762 2.098-0.462 0.641-1.066 1.16-1.816 1.559-0.75 0.391-1.576 0.586-2.474 0.586-0.952 0-1.784-0.168-2.496-0.504-0.702-0.336-1.288-0.797-1.758-1.383-0.46-0.586-0.808-1.258-1.042-2.016-0.226-0.766-0.34-1.574-0.34-2.426v-0.492c0-0.852 0.114-1.656 0.34-2.414 0.234-0.766 0.582-1.441 1.042-2.027 0.47-0.586 1.056-1.047 1.758-1.383 0.712-0.336 1.544-0.504 2.496-0.504 0.992 0 1.86 0.203 2.602 0.609 0.742 0.398 1.324 0.945 1.746 1.641 0.43 0.688 0.664 1.469 0.704 2.344h-2.064c-0.038-0.523-0.186-0.996-0.444-1.418-0.25-0.422-0.594-0.758-1.032-1.008-0.43-0.258-0.934-0.387-1.512-0.387-0.664 0-1.222 0.133-1.676 0.398-0.444 0.258-0.8 0.609-1.066 1.055-0.258 0.438-0.446 0.926-0.562 1.465-0.11 0.531-0.164 1.074-0.164 1.629v0.492c0 0.555 0.054 1.102 0.164 1.641s0.292 1.027 0.55 1.465c0.266 0.437 0.622 0.789 1.066 1.055 0.454 0.258 1.016 0.387 1.688 0.387zM594.484 22.688l3.526-11.367h2.32l-5.086 14.637c-0.116 0.313-0.272 0.648-0.468 1.008-0.188 0.367-0.43 0.715-0.726 1.043-0.298 0.328-0.656 0.594-1.078 0.797-0.414 0.211-0.91 0.316-1.488 0.316-0.172 0-0.392-0.023-0.656-0.070-0.266-0.047-0.454-0.086-0.564-0.117l-0.012-1.758c0.064 0.008 0.16 0.016 0.294 0.023 0.14 0.016 0.238 0.023 0.292 0.023 0.492 0 0.91-0.066 1.254-0.199 0.344-0.125 0.634-0.34 0.868-0.644 0.242-0.297 0.45-0.707 0.62-1.231l0.904-2.461zM591.894 11.32l3.292 9.844 0.562 2.285-1.558 0.797-4.664-12.926h2.368zM616.782 17.309h-4.558v-1.84h4.558c0.882 0 1.598-0.141 2.144-0.422 0.548-0.281 0.946-0.672 1.196-1.172 0.258-0.5 0.386-1.070 0.386-1.711 0-0.586-0.128-1.137-0.386-1.652-0.25-0.516-0.648-0.93-1.196-1.242-0.546-0.32-1.262-0.48-2.144-0.48h-4.032v15.211h-2.26v-17.063h6.292c1.29 0 2.38 0.223 3.27 0.668s1.566 1.063 2.028 1.852c0.46 0.781 0.69 1.676 0.69 2.684 0 1.094-0.23 2.027-0.69 2.801-0.462 0.773-1.138 1.363-2.028 1.77-0.89 0.398-1.98 0.598-3.27 0.598zM625.524 17.801v-0.27c0-0.914 0.132-1.762 0.398-2.543 0.266-0.789 0.648-1.473 1.148-2.051 0.5-0.586 1.106-1.039 1.816-1.359 0.712-0.328 1.508-0.492 2.392-0.492 0.89 0 1.69 0.164 2.402 0.492 0.718 0.32 1.328 0.773 1.828 1.359 0.508 0.578 0.894 1.262 1.16 2.051 0.266 0.781 0.398 1.629 0.398 2.543v0.27c0 0.914-0.132 1.762-0.398 2.543s-0.652 1.465-1.16 2.051c-0.5 0.578-1.106 1.031-1.816 1.359-0.704 0.32-1.5 0.48-2.392 0.48-0.89 0-1.69-0.16-2.402-0.48-0.71-0.328-1.32-0.781-1.828-1.359-0.5-0.586-0.882-1.27-1.148-2.051s-0.398-1.629-0.398-2.543zM627.692 17.531v0.27c0 0.633 0.074 1.23 0.222 1.793 0.148 0.555 0.372 1.047 0.668 1.477 0.304 0.43 0.684 0.769 1.136 1.019 0.454 0.242 0.982 0.363 1.582 0.363 0.594 0 1.114-0.121 1.56-0.363 0.452-0.25 0.828-0.59 1.124-1.019 0.298-0.43 0.52-0.922 0.668-1.477 0.156-0.563 0.234-1.16 0.234-1.793v-0.27c0-0.625-0.078-1.215-0.234-1.77-0.148-0.563-0.374-1.059-0.68-1.488-0.296-0.438-0.672-0.781-1.124-1.031-0.446-0.25-0.97-0.375-1.57-0.375-0.594 0-1.118 0.125-1.57 0.375-0.446 0.25-0.822 0.594-1.126 1.031-0.296 0.43-0.52 0.926-0.668 1.488-0.148 0.555-0.222 1.145-0.222 1.77zM643.1 6v18h-2.18v-18h2.18zM649.896 11.32v12.68h-2.18v-12.68h2.18zM647.552 7.957c0-0.352 0.106-0.648 0.318-0.891 0.218-0.242 0.538-0.363 0.96-0.363 0.414 0 0.73 0.121 0.95 0.363 0.226 0.242 0.34 0.539 0.34 0.891 0 0.336-0.114 0.625-0.34 0.867-0.22 0.234-0.536 0.352-0.95 0.352-0.422 0-0.742-0.117-0.96-0.352-0.212-0.242-0.318-0.531-0.318-0.867zM659.412 22.453c0.514 0 0.992-0.106 1.428-0.316 0.438-0.211 0.798-0.5 1.080-0.867 0.28-0.375 0.44-0.801 0.48-1.277h2.062c-0.040 0.75-0.292 1.449-0.762 2.098-0.46 0.641-1.066 1.16-1.816 1.559-0.75 0.391-1.574 0.586-2.472 0.586-0.954 0-1.786-0.168-2.496-0.504-0.704-0.336-1.29-0.797-1.758-1.383-0.462-0.586-0.81-1.258-1.044-2.016-0.226-0.766-0.34-1.574-0.34-2.426v-0.492c0-0.852 0.114-1.656 0.34-2.414 0.234-0.766 0.582-1.441 1.044-2.027 0.468-0.586 1.054-1.047 1.758-1.383 0.71-0.336 1.542-0.504 2.496-0.504 0.992 0 1.858 0.203 2.6 0.609 0.744 0.398 1.326 0.945 1.746 1.641 0.43 0.688 0.664 1.469 0.704 2.344h-2.062c-0.040-0.523-0.188-0.996-0.446-1.418-0.25-0.422-0.594-0.758-1.032-1.008-0.428-0.258-0.932-0.387-1.51-0.387-0.664 0-1.224 0.133-1.676 0.398-0.446 0.258-0.802 0.609-1.066 1.055-0.258 0.438-0.446 0.926-0.564 1.465-0.108 0.531-0.164 1.074-0.164 1.629v0.492c0 0.555 0.056 1.102 0.164 1.641 0.11 0.539 0.294 1.027 0.552 1.465 0.264 0.437 0.62 0.789 1.066 1.055 0.452 0.258 1.016 0.387 1.688 0.387zM671.422 22.688l3.528-11.367h2.32l-5.086 14.637c-0.118 0.313-0.274 0.648-0.468 1.008-0.188 0.367-0.43 0.715-0.728 1.043-0.296 0.328-0.656 0.594-1.078 0.797-0.414 0.211-0.91 0.316-1.488 0.316-0.172 0-0.39-0.023-0.656-0.070s-0.454-0.086-0.562-0.117l-0.012-1.758c0.062 0.008 0.16 0.016 0.292 0.023 0.142 0.016 0.238 0.023 0.294 0.023 0.492 0 0.91-0.066 1.254-0.199 0.344-0.125 0.632-0.34 0.866-0.644 0.242-0.297 0.45-0.707 0.622-1.231l0.902-2.461zM668.832 11.32l3.294 9.844 0.562 2.285-1.558 0.797-4.664-12.926h2.366z"></path>
<path fill="#4d5ae5" style="fill: var(--color3, #4d5ae5)" d="M517.344 26.344h160.218v1.172h-160.218v-1.172z"></path>
</symbol>

 </defs>
 </svg>